<?xml version="1.0" encoding="UTF-8" standalone="no"?>
<!-- Created with Inkscape (http://www.inkscape.org/) -->

<svg
   xmlns:dc="http://purl.org/dc/elements/1.1/"
   xmlns:cc="http://creativecommons.org/ns#"
   xmlns:rdf="http://www.w3.org/1999/02/22-rdf-syntax-ns#"
   xmlns:svg="http://www.w3.org/2000/svg"
   xmlns="http://www.w3.org/2000/svg"
   xmlns:sodipodi="http://sodipodi.sourceforge.net/DTD/sodipodi-0.dtd"
   xmlns:inkscape="http://www.inkscape.org/namespaces/inkscape"
   width="1052.3622"
   height="744.09448"
   id="svg2"
   version="1.1"
   inkscape:version="0.48.2 r9819"
   sodipodi:docname="capa.svg">
  <sodipodi:namedview
     id="base"
     pagecolor="#ffffff"
     bordercolor="#666666"
     borderopacity="1.0"
     inkscape:pageopacity="0.0"
     inkscape:pageshadow="2"
     inkscape:zoom="0.38"
     inkscape:cx="482.8776"
     inkscape:cy="451.90993"
     inkscape:document-units="px"
     inkscape:current-layer="layer1"
     showgrid="false"
     inkscape:window-width="1360"
     inkscape:window-height="718"
     inkscape:window-x="0"
     inkscape:window-y="25"
     inkscape:window-maximized="1"
     showguides="true"
     inkscape:guide-bbox="true" />
  <defs
     id="defs4" />
  <metadata
     id="metadata7">
    <rdf:RDF>
      <cc:Work
         rdf:about="">
        <dc:format>image/svg+xml</dc:format>
        <dc:type
           rdf:resource="http://purl.org/dc/dcmitype/StillImage" />
        <dc:title />
      </cc:Work>
    </rdf:RDF>
  </metadata>
  <g
     transform="translate(0,-308.2677)"
     id="layer1"
     inkscape:groupmode="layer"
     inkscape:label="Camada 1">
    <rect
       transform="matrix(0,1,-1,0,0,0)"
       inkscape:export-ydpi="360"
       inkscape:export-xdpi="360"
       inkscape:export-filename="/home/alan/Desktop/APGs e CCPG/APOGEEU/Manual/frente.png"
       y="-1123.2283"
       x="237.40155"
       height="1194.0945"
       width="885.82678"
       id="rect3975"
       style="fill:#000000;fill-opacity:1;stroke:none" />
    <g
       id="g3101">
      <text
         xml:space="preserve"
         style="font-size:34.70211411px;font-style:normal;font-weight:normal;text-align:end;line-height:125%;letter-spacing:0px;word-spacing:0px;text-anchor:end;fill:#ffffff;fill-opacity:1;stroke:none;font-family:Bitstream Vera Sans"
         x="1020.1393"
         y="915.43115"
         id="text3987"
         sodipodi:linespacing="125%"><tspan
           sodipodi:role="line"
           id="tspan3989"
           x="1020.1393"
           y="915.43115"
           style="font-size:48.58295822px;font-style:normal;font-variant:normal;font-weight:bold;font-stretch:normal;text-align:end;line-height:125%;writing-mode:lr-tb;text-anchor:end;fill:#ffffff;font-family:Ubuntu;-inkscape-font-specification:Ubuntu Bold">Unicamp</tspan><tspan
           sodipodi:role="line"
           x="1020.1393"
           y="962.08569"
           id="tspan3991"
           style="font-size:34.70211411px;font-style:normal;font-variant:normal;font-weight:normal;font-stretch:normal;text-align:end;line-height:125%;writing-mode:lr-tb;text-anchor:end;fill:#ffffff;font-family:Ubuntu;-inkscape-font-specification:Ubuntu">Modo de usar</tspan></text>
      <path
         inkscape:connector-curvature="0"
         id="path5177"
         d="m 839.93872,985.79124 c -0.44382,0.0457 -0.78058,0.4207 -0.77828,0.86689 l 0,2.67648 c 5e-5,0.47873 0.38812,0.86678 0.86686,0.86684 l 6.23253,0 c 2.20296,0 4.096,1.30991 4.92907,3.19539 -1.45307,-0.85175 -3.12983,-1.37309 -4.92907,-1.37309 l -6.23253,0 c -5.38931,0 -9.78222,4.39295 -9.78222,9.78225 0,5.3893 4.39291,9.7823 9.78222,9.7823 l 6.23253,0 c 5.3893,0 9.78222,-4.393 9.78222,-9.7823 l 0,-6.23253 c 0,-5.3893 -4.39292,-9.78223 -9.78222,-9.78223 l -6.23253,0 c -0.0295,-0.001 -0.059,-0.001 -0.0886,0 z m 57.90239,3.43583 a 0.58512562,0.58512562 0 0 0 -0.40495,0.21508 l -1.63248,2.02478 -3.70788,0 c -5.08266,0 -9.32937,3.70863 -10.18085,8.55477 -0.84147,-4.54099 -4.83146,-7.99795 -9.61138,-7.99795 l -6.24518,0 c -5.38931,0 -9.78222,4.39295 -9.78222,9.78225 l 0,15.1542 c 5e-5,0.4787 0.38811,0.8668 0.86685,0.8669 l 2.68284,0 c 0.47874,-10e-5 0.86681,-0.3882 0.86686,-0.8669 l 0,-6.9855 c 1.5415,1.0158 3.38588,1.6136 5.36567,1.6136 l 6.24518,0 c 4.77992,0 8.76991,-3.457 9.61138,-7.998 0.66364,3.7878 3.3972,6.8786 6.99182,8.0485 l -1.21487,1.8476 a 0.58512562,0.58512562 0 0 0 0.8985,0.734 l 2.20195,-2.1576 c 0.42732,0.054 0.86244,0.082 1.30345,0.082 l 6.23885,0 c 5.06934,0 9.30753,-3.6894 10.17452,-8.5168 0.85772,4.5229 4.84475,7.96 9.61139,7.96 l 6.24518,0 c 1.794,0 3.46279,-0.5197 4.91009,-1.3668 -0.8317,1.8861 -2.71012,3.2017 -4.91009,3.2017 l -6.24518,0 c -0.47875,0 -0.86681,0.3881 -0.86686,0.8669 l 0,2.6701 c 5e-5,0.4787 0.38811,0.8668 0.86686,0.8669 l 6.24518,0 c 5.38815,0 9.77589,-4.3878 9.77589,-9.7759 l 0,-6.2452 c 0,-5.38815 -4.38659,-9.78225 -9.77589,-9.78225 l -6.24518,0 c -4.76664,0 -8.75367,3.43706 -9.61139,7.95995 -0.86699,-4.82743 -5.10518,-8.51677 -10.17452,-8.51677 l -0.59477,0 0.67703,-1.40467 a 0.58512562,0.58512562 0 0 0 -0.5758,-0.83519 z m 46.31686,2.79668 c -5.3893,0 -9.78223,4.39295 -9.78222,9.78225 0,5.3893 4.39291,9.7823 9.78222,9.7823 l 3.78381,0 2.44871,0 3.78381,0 c 0.47874,-10e-5 0.86682,-0.3882 0.86686,-0.867 l 0,-2.6701 c -4e-5,-0.4787 -0.38812,-0.8668 -0.86686,-0.8668 l -3.78381,0 -2.44871,0 -3.78381,0 c -2.17348,0 -3.97994,-1.3218 -4.82784,-3.1701 l 19.88082,0 c 0.42915,-3e-4 0.79076,-0.3159 0.8542,-0.7403 0.0722,-0.4802 0.10756,-0.9723 0.10756,-1.468 0,-5.3893 -4.39291,-9.78225 -9.78222,-9.78225 l -6.23252,0 z m 26.03741,0 c -5.38932,0 -9.78222,4.39295 -9.78222,9.78225 -10e-6,5.3893 4.39292,9.7823 9.78222,9.7823 l 3.78381,0 2.44871,0 3.78382,0 c 0.47873,-10e-5 0.86681,-0.3882 0.86686,-0.867 l 0,-2.6701 c -5e-5,-0.4787 -0.38813,-0.8668 -0.86686,-0.8668 l -3.78382,0 -2.44871,0 -3.78381,0 c -2.17349,0 -3.97994,-1.3218 -4.82784,-3.1701 l 19.88082,0 c 0.42916,-3e-4 0.79076,-0.3159 0.8542,-0.7403 0.0722,-0.4802 0.10757,-0.9723 0.10757,-1.468 -1e-5,-5.3893 -4.39291,-9.78225 -9.78223,-9.78225 l -6.23252,0 z m 17.03346,0 c -0.44382,0.0457 -0.78057,0.42073 -0.77827,0.8669 l 0,8.91535 c -10e-6,5.3893 4.38659,9.7823 9.77589,9.7823 l 6.23884,0 c 5.3893,0 9.7822,-4.393 9.7822,-9.7823 l 0,-8.91535 c 0,-0.47879 -0.3881,-0.86684 -0.8668,-0.8669 l -2.6829,0 c -0.4787,6e-5 -0.8668,0.38811 -0.8668,0.8669 l 0,8.91535 c 0,2.9756 -2.3901,5.372 -5.3657,5.372 l -6.23884,0 c -2.97562,0 -5.37832,-2.398 -5.37832,-5.372 l 0,-8.91535 c -5e-5,-0.47879 -0.38812,-0.86684 -0.86686,-0.8669 l -2.66385,0 c -0.0295,0 -0.059,0 -0.0886,0 z m -95.13304,0.55682 2.80306,0 -3.46744,4.29636 c -2.38419,0.37806 -4.21408,2.4306 -4.21408,4.91637 0,2.7105 2.17779,4.9172 4.87213,4.9861 l -2.5373,3.8661 c -3.84389,-1.1114 -6.68178,-4.6394 -6.68178,-8.8395 0,-5.0867 4.13869,-9.22543 9.22541,-9.22543 z m 5.11257,0 1.12628,0 c 5.08673,0 9.22541,4.13867 9.22541,9.22543 0,5.0868 -4.13868,9.2254 -9.22541,9.2254 l -6.23885,0 c -0.0776,0 -0.15163,-0.014 -0.22779,-0.019 l 4.30899,-4.2204 1.98049,0 c 2.75361,0 4.99866,-2.2451 4.99867,-4.9987 0,-0.5494 -0.11308,-1.0682 -0.27841,-1.563 l 0.10757,-0.1012 a 0.58512562,0.58512562 0 0 0 -0.41128,-1.006 l -0.23412,0 c -0.88837,-1.3875 -2.41767,-2.32854 -4.18243,-2.32854 l -2.9739,0 2.02478,-4.21407 z m -2.01845,1.50594 -2.5816,5.37202 a 0.58512562,0.58512562 0 0 0 0.52518,0.83517 l 8.01054,0 -9.50382,9.3014 5.03665,-7.6752 a 0.58512562,0.58512562 0 0 0 -0.53784,-0.9049 l -6.97916,0.5379 6.03005,-7.46639 z m -28.986,3.26495 5.94146,0 c 2.45252,0 4.44187,1.98936 4.44187,4.44184 -1e-5,2.4525 -1.98935,4.4419 -4.44187,4.4419 l -5.94146,0 c -2.45252,0 -4.44187,-1.9894 -4.44187,-4.4419 10e-6,-2.45248 1.98935,-4.44184 4.44187,-4.44184 z m -26.03741,0.0444 5.94146,0 c 2.45252,0 4.44186,1.98936 4.44186,4.44191 0,2.4525 -1.98934,4.4418 -4.44186,4.4418 l -5.94146,0 c -2.45252,0 -4.44187,-1.9893 -4.44187,-4.4418 0,-2.45255 1.98935,-4.44191 4.44187,-4.44191 z m 78.1059,0 5.94147,0 c 2.45252,0 4.44186,1.98936 4.44186,4.44191 0,2.4525 -1.98935,4.4418 -4.44186,4.4418 l -5.94147,0 c -2.45252,0 -4.44186,-1.9893 -4.44186,-4.4418 0,-2.45255 1.98935,-4.44191 4.44186,-4.44191 z m 26.03109,0 5.94146,0 c 1.3094,0 2.48985,0.56613 3.30293,1.46796 l -12.54099,0 c 0.81308,-0.90183 1.9872,-1.46796 3.2966,-1.46796 z m 26.03108,0 5.94147,0 c 1.3094,0 2.48984,0.56613 3.30292,1.46796 l -12.54098,0 c 0.81308,-0.90183 1.98719,-1.46796 3.29659,-1.46796 z m -75.68883,0.51251 3.51174,0 c 1.11599,0 2.11581,0.46577 2.82203,1.2149 l -6.91589,0 0.58212,-1.2149 z m -4.58106,0.65809 -1.47429,1.82861 c 0.29071,-0.75344 0.81132,-1.38847 1.47429,-1.82861 z m 11.91457,2.54361 c 0.04,0.2218 0.0633,0.4486 0.0633,0.6834 0,2.1514 -1.73363,3.885 -3.88504,3.885 l -0.84155,0 4.66332,-4.5684 z m -6.93487,1.1642 -2.23359,3.4042 -0.59478,0 c -1.81207,0 -3.32544,-1.2308 -3.7585,-2.9043 l 6.58687,-0.4999 z m -33.44685,15.9642 c -0.11796,0 -0.22368,0.025 -0.31005,0.076 -0.0843,0.051 -0.14558,0.1161 -0.18981,0.2025 -0.0421,0.086 -0.076,0.1794 -0.0949,0.2721 -0.0189,0.091 -0.0253,0.1878 -0.0253,0.2911 l 0.4366,0 c 0,-0.1181 0.0232,-0.2089 0.0633,-0.2722 0.0421,-0.063 0.095,-0.095 0.16452,-0.095 0.0548,0 0.1182,0.019 0.18982,0.057 0.0716,0.038 0.14139,0.08 0.20248,0.1266 0.0632,0.046 0.13932,0.089 0.23411,0.1265 0.0948,0.038 0.19416,0.057 0.29107,0.057 0.11796,0 0.21945,-0.026 0.30371,-0.076 0.0864,-0.05 0.14769,-0.1181 0.18983,-0.2024 0.0442,-0.086 0.0759,-0.1752 0.0949,-0.2658 0.0189,-0.093 0.0317,-0.192 0.0317,-0.2974 l -0.44293,0 c 0,0.2465 -0.0803,0.367 -0.24044,0.367 -0.0526,0 -0.11398,-0.019 -0.18349,-0.057 -0.0695,-0.04 -0.13296,-0.082 -0.19615,-0.1266 -0.0611,-0.046 -0.13933,-0.089 -0.23412,-0.1265 -0.0927,-0.04 -0.18783,-0.057 -0.28474,-0.057 z m 30.3464,0.025 -0.62642,0.8352 0.62009,0 0.90483,-0.8352 -0.8985,0 z m 64.97647,1.0567 0,6.4667 0.715,0 0,-6.4667 -0.715,0 z m -126.86515,0.1392 c -0.55191,0 -0.98537,0.1227 -1.29713,0.367 -0.31176,0.2444 -0.46823,0.608 -0.46823,1.0946 0,0.394 0.11207,0.7027 0.34168,0.9176 0.23172,0.2148 0.57214,0.3671 1.01872,0.4618 l 0.47456,0.1076 c 0.2612,0.057 0.44305,0.1246 0.55049,0.2025 0.10953,0.078 0.16451,0.1964 0.16451,0.3543 0,0.059 -0.0106,0.1119 -0.0317,0.1646 -0.0211,0.052 -0.0591,0.1076 -0.11389,0.1645 -0.0548,0.055 -0.13724,0.099 -0.2531,0.1328 -0.11375,0.032 -0.25752,0.045 -0.42394,0.045 -0.51399,0 -1.07854,-0.1586 -1.68942,-0.481 l 0,1.0251 c 0.60667,0.2254 1.2135,0.3417 1.80964,0.3417 0.61089,0 1.07185,-0.1226 1.39204,-0.367 0.32018,-0.2444 0.48088,-0.6376 0.48089,-1.1769 -1e-5,-0.4066 -0.1163,-0.7131 -0.34801,-0.9238 -0.22962,-0.2128 -0.59542,-0.3735 -1.10098,-0.4746 l -0.51884,-0.1012 c -0.23173,-0.049 -0.39877,-0.1098 -0.49987,-0.1772 -0.10112,-0.069 -0.15186,-0.171 -0.15186,-0.3037 0,-0.158 0.0655,-0.2764 0.19615,-0.3607 0.1306,-0.086 0.3505,-0.1265 0.65805,-0.1265 0.44868,0 0.93289,0.1142 1.45531,0.348 l 0,-0.9998 c -0.57719,-0.1558 -1.12272,-0.234 -1.64513,-0.234 z m 4.66332,0 c -0.55191,0 -0.98536,0.1227 -1.29712,0.367 -0.31177,0.2444 -0.46824,0.608 -0.46824,1.0946 0,0.394 0.11208,0.7027 0.34169,0.9176 0.23171,0.2148 0.57213,0.3671 1.01871,0.4618 l 0.47456,0.1076 c 0.26121,0.057 0.44306,0.1246 0.55049,0.2025 0.10954,0.078 0.16451,0.1964 0.16451,0.3543 0,0.059 -0.0106,0.1119 -0.0317,0.1646 -0.0211,0.052 -0.0591,0.1076 -0.11389,0.1645 -0.0548,0.055 -0.13724,0.099 -0.2531,0.1328 -0.11375,0.032 -0.25752,0.045 -0.42394,0.045 -0.51399,0 -1.07221,-0.1586 -1.68309,-0.481 l 0,1.0251 c 0.60667,0.2254 1.20717,0.3417 1.80332,0.3417 0.61088,0 1.07184,-0.1226 1.39203,-0.367 0.32019,-0.2444 0.48088,-0.6376 0.48088,-1.1769 0,-0.4066 -0.11629,-0.7131 -0.348,-0.9238 -0.22961,-0.2128 -0.59542,-0.3735 -1.10098,-0.4746 l -0.51884,-0.1012 c -0.23173,-0.049 -0.39877,-0.1098 -0.49987,-0.1772 -0.10112,-0.069 -0.15186,-0.171 -0.15186,-0.3037 0,-0.158 0.0655,-0.2764 0.19615,-0.3607 0.1306,-0.086 0.3505,-0.1265 0.65805,-0.1265 0.44868,0 0.93289,0.1142 1.45531,0.348 l 0,-0.9998 c -0.57719,-0.1558 -1.12272,-0.234 -1.64513,-0.234 z m 5.18217,0 c -0.75623,0 -1.34618,0.2199 -1.77801,0.6517 -0.42973,0.4298 -0.64539,1.026 -0.64539,1.797 0,0.771 0.21566,1.3736 0.64539,1.8033 0.43183,0.4298 1.02178,0.6455 1.77801,0.6455 0.75624,0 1.34828,-0.2157 1.77801,-0.6455 0.43183,-0.4297 0.65173,-1.0323 0.65173,-1.8033 0,-0.773 -0.21568,-1.3735 -0.6454,-1.8033 -0.42973,-0.4297 -1.026,-0.6454 -1.78434,-0.6454 z m 5.63142,0 c -0.79205,0 -1.42213,0.2199 -1.87924,0.6581 -0.45501,0.4381 -0.67704,1.0344 -0.67704,1.7906 0,0.7563 0.22625,1.3525 0.68336,1.7907 0.45712,0.436 1.08298,0.6581 1.87292,0.6581 0.52242,0 1.00663,-0.1205 1.45532,-0.3544 l 0,-0.9744 c -0.43395,0.297 -0.88855,0.4429 -1.3604,0.4429 -0.44237,0 -0.78703,-0.1374 -1.03138,-0.4176 -0.24435,-0.2801 -0.36699,-0.6629 -0.36699,-1.1453 0,-0.4824 0.12264,-0.8651 0.36699,-1.1452 0.24435,-0.2823 0.58901,-0.4176 1.03138,-0.4176 0.46763,0 0.92224,0.1459 1.3604,0.4429 l 0,-0.9744 c -0.44869,-0.2338 -0.9329,-0.3544 -1.45532,-0.3544 z m 12.16767,0 c -0.79205,0 -1.41581,0.2199 -1.87292,0.6581 -0.45501,0.4381 -0.68336,1.0344 -0.68336,1.7906 0,0.7563 0.23257,1.3525 0.68968,1.7907 0.42031,0.4009 0.98141,0.6194 1.6831,0.6517 0.1426,0.2026 0.22146,0.3506 0.22146,0.4429 0,0.091 -0.0402,0.1583 -0.11389,0.2025 -0.0716,0.046 -0.16466,0.07 -0.27841,0.07 -0.14114,0 -0.31664,-0.03 -0.52518,-0.095 l 0,0.4809 c 0.22329,0.055 0.44107,0.082 0.6454,0.082 0.28227,0 0.48525,-0.051 0.60744,-0.1518 0.12217,-0.1011 0.18349,-0.247 0.1835,-0.4366 -10e-6,-0.1779 -0.10302,-0.3816 -0.29107,-0.6011 0.42275,-0.033 0.8175,-0.1478 1.18956,-0.3417 l 0,-0.9744 c -0.43394,0.297 -0.88221,0.4429 -1.35407,0.4429 -0.44237,0 -0.78702,-0.1374 -1.03137,-0.4176 -0.24436,-0.2801 -0.367,-0.6629 -0.367,-1.1453 0,-0.4824 0.12264,-0.8651 0.367,-1.1452 0.24435,-0.2823 0.589,-0.4176 1.03137,-0.4176 0.46764,0 0.91592,0.1459 1.35407,0.4429 l 0,-0.9744 c -0.44869,-0.2338 -0.9329,-0.3544 -1.45531,-0.3544 z m 9.63036,0 c -0.75624,0 -1.3525,0.2199 -1.78434,0.6517 -0.42972,0.4298 -0.6454,1.026 -0.6454,1.797 0,0.771 0.21568,1.3736 0.6454,1.8033 0.43184,0.4298 1.0281,0.6455 1.78434,0.6455 0.75624,0 1.34828,-0.2157 1.77801,-0.6455 0.43183,-0.4297 0.64539,-1.0323 0.6454,-1.8033 -10e-6,-0.773 -0.21568,-1.3735 -0.6454,-1.8033 -0.42973,-0.4297 -1.01967,-0.6454 -1.77801,-0.6454 z m 24.53148,0 c -0.75623,0 -1.3525,0.2199 -1.78433,0.6517 -0.42973,0.4298 -0.6454,1.026 -0.6454,1.797 0,0.771 0.21567,1.3736 0.6454,1.8033 0.43183,0.4298 1.0281,0.6455 1.78433,0.6455 0.75623,0 1.34828,-0.2157 1.77801,-0.6455 0.43183,-0.4297 0.6454,-1.0323 0.6454,-1.8033 0,-0.773 -0.20935,-1.3735 -0.63907,-1.8033 -0.42973,-0.4297 -1.026,-0.6454 -1.78434,-0.6454 z m 4.97337,0 c -0.55191,0 -0.97903,0.1227 -1.2908,0.367 -0.31176,0.2444 -0.46823,0.608 -0.46823,1.0946 0,0.394 0.11207,0.7027 0.34168,0.9176 0.23172,0.2148 0.57214,0.3671 1.01872,0.4618 l 0.46823,0.1076 c 0.2612,0.057 0.44938,0.1246 0.55682,0.2025 0.10953,0.078 0.1645,0.1964 0.16451,0.3543 -10e-6,0.059 -0.0106,0.1119 -0.0317,0.1646 -0.0211,0.052 -0.0592,0.1076 -0.11389,0.1645 -0.0548,0.055 -0.14357,0.099 -0.25943,0.1328 -0.11375,0.032 -0.2512,0.045 -0.41761,0.045 -0.51399,0 -1.07854,-0.1586 -1.68942,-0.481 l 0,1.0251 c 0.60667,0.2254 1.20717,0.3417 1.80331,0.3417 0.61089,0 1.07818,-0.1226 1.39837,-0.367 0.32018,-0.2444 0.48088,-0.6376 0.48088,-1.1769 0,-0.4066 -0.11629,-0.7131 -0.348,-0.9238 -0.22962,-0.2128 -0.59542,-0.3735 -1.10098,-0.4746 l -0.51885,-0.1012 c -0.23172,-0.049 -0.39876,-0.1098 -0.49986,-0.1772 -0.10112,-0.069 -0.15187,-0.171 -0.15187,-0.3037 0,-0.158 0.0656,-0.2764 0.19615,-0.3607 0.13061,-0.086 0.35051,-0.1265 0.65806,-0.1265 0.44868,0 0.93289,0.1142 1.45531,0.348 l 0,-0.9998 c -0.57719,-0.1558 -1.12905,-0.234 -1.65146,-0.234 z m 8.07381,0 c -0.81522,0 -1.4559,0.2178 -1.92354,0.6517 -0.46554,0.4319 -0.69602,1.0302 -0.69602,1.797 0,0.7563 0.22625,1.3525 0.68337,1.7907 0.4571,0.436 1.08297,0.6581 1.87292,0.6581 0.69514,0 1.34639,-0.148 1.95518,-0.443 l 0,-2.2715 -1.89823,0 0,0.8162 0.74663,0 0,0.9175 c -0.16642,0.065 -0.38208,0.095 -0.6454,0.095 -0.46975,0 -0.83132,-0.1332 -1.08199,-0.4049 -0.25067,-0.2739 -0.37332,-0.6608 -0.37332,-1.158 0,-0.5034 0.12477,-0.8882 0.38598,-1.1579 0.2612,-0.2717 0.63968,-0.4049 1.12628,-0.4049 0.52452,0 1.04257,0.1459 1.56288,0.4429 l 0,-0.9744 c -0.51188,-0.2338 -1.08279,-0.3544 -1.71474,-0.3544 z m 41.52699,0 c -0.75624,0 -1.35251,0.2199 -1.78434,0.6517 -0.42973,0.4298 -0.63907,1.026 -0.63907,1.797 0,0.771 0.20934,1.3736 0.63907,1.8033 0.43183,0.4298 1.0281,0.6455 1.78434,0.6455 0.75623,0 1.34827,-0.2157 1.77801,-0.6455 0.43182,-0.4297 0.65171,-1.0323 0.65172,-1.8033 -10e-6,-0.773 -0.21567,-1.3735 -0.6454,-1.8033 -0.42973,-0.4297 -1.02599,-0.6454 -1.78433,-0.6454 z m 4.97969,0 c -0.55191,0 -0.98536,0.1227 -1.29712,0.367 -0.31177,0.2444 -0.46824,0.608 -0.46824,1.0946 0,0.394 0.11208,0.7027 0.34169,0.9176 0.23171,0.2148 0.57213,0.3671 1.01871,0.4618 l 0.47456,0.1076 c 0.26121,0.057 0.44306,0.1246 0.55049,0.2025 0.10953,0.078 0.16451,0.1964 0.16451,0.3543 0,0.059 -0.0106,0.1119 -0.0317,0.1646 -0.0211,0.052 -0.0591,0.1076 -0.11389,0.1645 -0.0548,0.055 -0.13724,0.099 -0.2531,0.1328 -0.11375,0.032 -0.25753,0.045 -0.42394,0.045 -0.51399,0 -1.07854,-0.1586 -1.68943,-0.481 l 0,1.0251 c 0.60668,0.2254 1.21351,0.3417 1.80966,0.3417 0.61088,0 1.07184,-0.1226 1.39203,-0.367 0.32019,-0.2444 0.48088,-0.6376 0.48088,-1.1769 0,-0.4066 -0.11629,-0.7131 -0.34801,-0.9238 -0.22961,-0.2128 -0.59541,-0.3735 -1.10097,-0.4746 l -0.51885,-0.1012 c -0.23172,-0.049 -0.39876,-0.1098 -0.49987,-0.1772 -0.10111,-0.069 -0.15186,-0.171 -0.15186,-0.3037 0,-0.158 0.0656,-0.2764 0.19616,-0.3607 0.1306,-0.086 0.3505,-0.1265 0.65805,-0.1265 0.44868,0 0.93289,0.1142 1.45531,0.348 l 0,-0.9998 c -0.57719,-0.1558 -1.12272,-0.234 -1.64513,-0.234 z m 25.44896,0 c -0.79205,0 -1.42214,0.2199 -1.87925,0.6581 -0.45501,0.4381 -0.67704,1.0344 -0.67704,1.7906 0,0.7563 0.22625,1.3525 0.68337,1.7907 0.45711,0.436 1.08298,0.6581 1.87292,0.6581 0.52241,0 1.00662,-0.1205 1.45531,-0.3544 l 0,-0.9744 c -0.43395,0.297 -0.88855,0.4429 -1.3604,0.4429 -0.44237,0 -0.78702,-0.1374 -1.03137,-0.4176 -0.24436,-0.2801 -0.367,-0.6629 -0.36699,-1.1453 -10e-6,-0.4824 0.12263,-0.8651 0.36699,-1.1452 0.24435,-0.2823 0.589,-0.4176 1.03137,-0.4176 0.46764,0 0.92224,0.1459 1.3604,0.4429 l 0,-0.9744 c -0.44869,-0.2338 -0.9329,-0.3544 -1.45531,-0.3544 z m 25.0377,0 c -0.7921,0 -1.4222,0.2199 -1.8793,0.6581 -0.45498,0.4381 -0.67701,1.0344 -0.67701,1.7906 0,0.7563 0.22625,1.3525 0.68341,1.7907 0.4571,0.436 1.0829,0.6581 1.8729,0.6581 0.5224,0 1.0066,-0.1205 1.4553,-0.3544 l 0,-0.9744 c -0.434,0.297 -0.8886,0.4429 -1.3604,0.4429 -0.4424,0 -0.787,-0.1374 -1.0314,-0.4176 -0.2443,-0.2801 -0.367,-0.6629 -0.367,-1.1453 0,-0.4824 0.1227,-0.8651 0.367,-1.1452 0.2444,-0.2823 0.589,-0.4176 1.0314,-0.4176 0.4676,0 0.9222,0.1459 1.3604,0.4429 l 0,-0.9744 c -0.4487,-0.2338 -0.9329,-0.3544 -1.4553,-0.3544 z m -177.30119,0.089 -1.74638,4.7139 1.2212,0 0.29739,-0.8605 1.90456,0 0.29738,0.8605 1.2212,0 -1.74637,-4.7139 -1.44898,0 z m 23.39886,0 0,4.7139 1.21487,0 0,-4.7139 -1.21487,0 z m 3.59399,0 -1.74637,4.7139 1.22119,0 0.30372,-0.8605 1.90456,0 0.29106,0.8605 1.22753,0 -1.74638,-4.7139 -1.45531,0 z m 9.75691,0 -1.74637,4.7139 1.22752,0 0.29739,-0.8605 1.90456,0 0.29739,0.8605 1.22119,0 -1.74636,-4.7139 -1.45532,0 z m 11.57288,0 0,4.7139 1.27815,0 c 0.70778,0 1.24062,-0.051 1.59452,-0.1518 0.16219,-0.049 0.31655,-0.1119 0.4619,-0.1898 0.14745,-0.078 0.28911,-0.1773 0.42393,-0.3037 0.13692,-0.1265 0.25533,-0.2723 0.35434,-0.4303 0.099,-0.1601 0.17513,-0.3483 0.23412,-0.5695 0.059,-0.2212 0.0886,-0.458 0.0886,-0.715 0,-0.6994 -0.21568,-1.2618 -0.65172,-1.6831 -0.14746,-0.1432 -0.30816,-0.2574 -0.48089,-0.348 -0.17063,-0.093 -0.36515,-0.1646 -0.58212,-0.2088 -0.21698,-0.046 -0.43054,-0.074 -0.6454,-0.089 -0.21487,-0.017 -0.48339,-0.025 -0.79726,-0.025 l -1.27815,0 z m 5.372,0 0,4.7139 3.34722,0 0,-0.9175 -2.13235,0 0,-1.0819 1.94252,0 0,-0.9175 -1.94252,0 0,-0.8795 2.06275,0 0,-0.9175 -3.27762,0 z m 6.66913,0 0,4.7139 1.21486,0 0,-1.6324 0.80358,0 c 0.5814,0 1.04233,-0.129 1.37306,-0.386 0.33072,-0.2591 0.49354,-0.6461 0.49354,-1.1579 0,-0.5119 -0.16282,-0.8946 -0.49354,-1.1516 -0.32861,-0.257 -0.78955,-0.386 -1.37306,-0.386 l -2.01844,0 z m 22.90532,0 0,4.7139 1.21487,0 0,-1.7843 0.34168,0 c 0.20644,0 0.36925,0.05 0.48721,0.1455 0.12008,0.093 0.23425,0.2471 0.34169,0.4683 l 0.57579,1.1705 1.29713,0 -0.66438,-1.335 c -0.12218,-0.2444 -0.24272,-0.4432 -0.37332,-0.5885 -0.1285,-0.1453 -0.28497,-0.2362 -0.46823,-0.2784 0.60456,-0.1896 0.90482,-0.5977 0.90482,-1.2149 0,-0.2043 -0.0296,-0.3798 -0.0886,-0.5315 -0.0569,-0.1538 -0.14993,-0.2869 -0.28473,-0.4049 -0.13482,-0.118 -0.32512,-0.211 -0.56315,-0.2721 -0.23804,-0.061 -0.52771,-0.089 -0.86686,-0.089 l -1.85394,0 z m 6.16293,0 -1.74637,4.7139 1.22119,0 0.30372,-0.8605 1.89823,0 0.29739,0.8605 1.22119,0 -1.74636,-4.7139 -1.44899,0 z m 3.82177,0 0,4.7139 1.27814,0 c 0.70779,0 1.24062,-0.051 1.59452,-0.1518 0.1622,-0.049 0.31655,-0.1119 0.4619,-0.1898 0.14746,-0.078 0.28912,-0.1773 0.42394,-0.3037 0.13692,-0.1265 0.25533,-0.2723 0.35434,-0.4303 0.099,-0.1601 0.17513,-0.3483 0.23411,-0.5695 0.059,-0.2212 0.0886,-0.458 0.0886,-0.715 -10e-6,-0.6994 -0.21569,-1.2618 -0.65173,-1.6831 -0.14746,-0.1432 -0.30815,-0.2574 -0.48088,-0.348 -0.17063,-0.093 -0.36516,-0.1646 -0.58213,-0.2088 -0.21697,-0.046 -0.43053,-0.074 -0.6454,-0.089 -0.21486,-0.017 -0.48338,-0.025 -0.79726,-0.025 l -1.27814,0 z m 5.372,0 0,2.8284 c 0,0.6698 0.16915,1.1668 0.50619,1.4932 0.33704,0.3245 0.84451,0.4873 1.52491,0.4873 0.68251,0 1.18787,-0.1628 1.52492,-0.4873 0.33703,-0.3244 0.50619,-0.8212 0.50619,-1.4932 l 0,-2.8284 -1.21486,0 0,2.8284 c -10e-6,0.3623 -0.0571,0.6287 -0.17717,0.8099 -0.11797,0.1812 -0.33153,0.2721 -0.63908,0.2721 -0.29912,0 -0.51056,-0.089 -0.63274,-0.2658 -0.12217,-0.1769 -0.1835,-0.4455 -0.18349,-0.8162 l 0,-2.8284 -1.21487,0 z m 6.44133,0 -1.74637,4.7139 1.22119,0 0.29739,-0.8605 1.90456,0 0.29739,0.8605 1.2212,0 -1.74637,-4.7139 -1.44899,0 z m 3.82177,0 0,4.7139 1.1516,0 0,-3.2333 1.71474,3.2333 1.36039,0 0,-4.7139 -1.15159,0 0,3.2333 -1.72106,-3.2333 -1.35408,0 z m 5.42262,0 0,4.7139 1.27814,0 c 0.70779,0 1.24062,-0.051 1.59451,-0.1518 0.1622,-0.049 0.31655,-0.1119 0.46191,-0.1898 0.14745,-0.078 0.28912,-0.1773 0.42394,-0.3037 0.13692,-0.1265 0.25533,-0.2723 0.35434,-0.4303 0.099,-0.1601 0.17512,-0.3483 0.23411,-0.5695 0.059,-0.2212 0.0886,-0.458 0.0886,-0.715 0,-0.6994 -0.21568,-1.2618 -0.65172,-1.6831 -0.14746,-0.1432 -0.30816,-0.2574 -0.48089,-0.348 -0.17063,-0.093 -0.36516,-0.1646 -0.58212,-0.2088 -0.21698,-0.046 -0.43054,-0.074 -0.6454,-0.089 -0.21486,-0.017 -0.48339,-0.025 -0.79726,-0.025 l -1.27814,0 z m 22.3928,0 0,4.7139 1.21487,0 0,-1.9994 1.94253,0 0,-0.9175 -1.94253,0 0,-0.8795 2.06908,0 0,-0.9175 -3.28395,0 z m 4.42289,0 0,4.7139 3.35354,0 0,-0.9175 -2.13235,0 0,-1.0819 1.94253,0 0,-0.9175 -1.94253,0 0,-0.8795 2.06275,0 0,-0.9175 -3.28394,0 z m 4.42288,0 0,4.7139 3.35354,0 0,-0.9175 -2.13235,0 0,-1.0819 1.94252,0 0,-0.9175 -1.94252,0 0,-0.8795 2.06275,0 0,-0.9175 -3.28394,0 z m 16.36908,0 0,2.8284 c 0,0.6698 0.16915,1.1668 0.5062,1.4932 0.33704,0.3245 0.84451,0.4873 1.52491,0.4873 0.68251,0 1.1942,-0.1628 1.53124,-0.4873 0.33704,-0.3244 0.50619,-0.8212 0.5062,-1.4932 l 0,-2.8284 -1.21487,0 0,2.8284 c -10e-6,0.3623 -0.0634,0.6287 -0.1835,0.8099 -0.11797,0.1812 -0.33152,0.2721 -0.63907,0.2721 -0.29913,0 -0.51057,-0.089 -0.63275,-0.2658 -0.12218,-0.1769 -0.18349,-0.4455 -0.18349,-0.8162 l 0,-2.8284 -1.21487,0 z m 5.2581,0 0,4.7139 1.1516,0 0,-3.2333 1.72106,3.2333 1.35407,0 0,-4.7139 -1.15159,0 0,3.2333 -1.71474,-3.2333 -1.3604,0 z m 5.42262,0 0,4.7139 1.21487,0 0,-4.7139 -1.21487,0 z m 8.35221,0 -1.7464,4.7139 1.2212,0 0.2974,-0.8605 1.9046,0 0.2974,0.8605 1.2212,0 -1.7464,-4.7139 -1.449,0 z m 3.8218,0 0,4.7139 1.1516,0 0,-3.4484 1.0883,2.5436 0.7719,0 1.082,-2.5436 0,3.4484 1.1516,0 0,-4.7139 -1.5439,0 -1.082,2.5246 -1.0756,-2.5246 -1.5439,0 z m 6.4413,0 0,4.7139 1.2212,0 0,-1.6324 0.7973,0 c 0.5814,0 1.0423,-0.129 1.373,-0.386 0.3307,-0.2591 0.4936,-0.6461 0.4936,-1.1579 0,-0.5119 -0.1629,-0.8946 -0.4936,-1.1516 -0.3286,-0.257 -0.7895,-0.386 -1.373,-0.386 l -2.0185,0 z m -175.91545,0.7973 c 0.20012,0 0.37983,0.036 0.53151,0.1138 0.15166,0.078 0.26797,0.1859 0.36066,0.3291 0.0927,0.1411 0.16246,0.306 0.20881,0.4935 0.0463,0.1875 0.0696,0.3969 0.0696,0.6264 0,0.2297 -0.0232,0.439 -0.0696,0.6265 -0.0463,0.1854 -0.11613,0.3502 -0.20881,0.4935 -0.0927,0.1411 -0.209,0.2511 -0.36066,0.329 -0.15168,0.078 -0.33139,0.1139 -0.53151,0.1139 -0.3897,0 -0.68361,-0.1396 -0.87951,-0.4239 -0.1938,-0.2844 -0.29106,-0.665 -0.29106,-1.139 0,-0.3096 0.0402,-0.5803 0.12022,-0.8099 0.08,-0.2296 0.20902,-0.4072 0.38597,-0.5442 0.17905,-0.139 0.40107,-0.2087 0.66438,-0.2087 z m 27.42945,0 c 0.20011,0 0.37351,0.036 0.52518,0.1138 0.15166,0.078 0.2743,0.1859 0.36699,0.3291 0.0927,0.1411 0.16246,0.306 0.20881,0.4935 0.0463,0.1875 0.0696,0.3969 0.0696,0.6264 -10e-6,0.2297 -0.0232,0.439 -0.0696,0.6265 -0.0464,0.1854 -0.11612,0.3502 -0.20881,0.4935 -0.0927,0.1411 -0.21533,0.2511 -0.36699,0.329 -0.15167,0.078 -0.32507,0.1139 -0.52518,0.1139 -0.3897,0 -0.68361,-0.1396 -0.87951,-0.4239 -0.1938,-0.2844 -0.29107,-0.665 -0.29106,-1.139 -10e-6,-0.3096 0.0402,-0.5803 0.12022,-0.8099 0.08,-0.2296 0.20902,-0.4072 0.38597,-0.5442 0.17905,-0.139 0.40106,-0.2087 0.66438,-0.2087 z m 24.53148,0 c 0.20012,0 0.37351,0.036 0.52518,0.1138 0.15166,0.078 0.2743,0.1859 0.36699,0.3291 0.0927,0.1411 0.16246,0.306 0.20881,0.4935 0.0463,0.1875 0.0696,0.3969 0.0696,0.6264 0,0.2297 -0.0232,0.439 -0.0696,0.6265 -0.0464,0.1854 -0.11613,0.3502 -0.20881,0.4935 -0.0927,0.1411 -0.21533,0.2511 -0.36699,0.329 -0.15167,0.078 -0.32506,0.1139 -0.52518,0.1139 -0.3897,0 -0.68361,-0.1396 -0.87951,-0.4239 -0.1938,-0.2844 -0.29106,-0.665 -0.29106,-1.139 0,-0.3096 0.0402,-0.5803 0.12022,-0.8099 0.08,-0.2296 0.20902,-0.4072 0.38597,-0.5442 0.17905,-0.139 0.40107,-0.2087 0.66438,-0.2087 z m 54.57417,0 c 0.20011,0 0.3735,0.036 0.52517,0.1138 0.15167,0.078 0.2743,0.1859 0.36699,0.3291 0.0927,0.1411 0.16246,0.306 0.20881,0.4935 0.0463,0.1875 0.0696,0.3969 0.0696,0.6264 0,0.2297 -0.0232,0.439 -0.0696,0.6265 -0.0464,0.1854 -0.11612,0.3502 -0.20881,0.4935 -0.0927,0.1411 -0.21532,0.2511 -0.36699,0.329 -0.15167,0.078 -0.32506,0.1139 -0.52517,0.1139 -0.38971,0 -0.68362,-0.1396 -0.87952,-0.4239 -0.1938,-0.2844 -0.29107,-0.665 -0.29106,-1.139 -10e-6,-0.3096 0.0402,-0.5803 0.12022,-0.8099 0.08,-0.2296 0.20903,-0.4072 0.38597,-0.5442 0.17906,-0.139 0.40107,-0.2087 0.66439,-0.2087 z m -60.25621,0.082 0.67704,0 c 0.23382,0 0.41566,0.053 0.54416,0.1645 0.1306,0.1117 0.19614,0.2787 0.19615,0.4936 -10e-6,0.2148 -0.0656,0.3798 -0.19615,0.4935 -0.1285,0.1116 -0.31034,0.1645 -0.54416,0.1645 l -0.67704,0 0,-1.3161 z m 22.90533,0 0.51253,0 c 0.24435,0 0.42196,0.049 0.53783,0.1392 0.11585,0.089 0.17716,0.2408 0.17717,0.4619 -10e-6,0.2086 -0.0571,0.3629 -0.16452,0.4619 -0.10533,0.099 -0.28717,0.1456 -0.55048,0.1456 l -0.51253,0 0,-1.2086 z m 107.95243,0 0.6707,0 c 0.2338,0 0.4157,0.053 0.5442,0.1645 0.1306,0.1117 0.1961,0.2787 0.1961,0.4936 0,0.2148 -0.066,0.3798 -0.1961,0.4935 -0.1285,0.1116 -0.3104,0.1645 -0.5442,0.1645 l -0.6707,0 0,-1.3161 z m -142.89888,0.038 0.4366,0 c 0.49503,0 0.87562,0.1185 1.13894,0.3607 0.26331,0.2422 0.39229,0.6038 0.3923,1.0757 -10e-6,0.4739 -0.13321,0.8313 -0.39863,1.0756 -0.26332,0.2444 -0.63969,0.367 -1.13261,0.367 l -0.4366,0 0,-2.879 z m 44.93115,0 0.43659,0 c 0.49503,0 0.87563,0.1185 1.13894,0.3607 0.26331,0.2422 0.3923,0.6038 0.3923,1.0757 0,0.4739 -0.13321,0.8313 -0.39863,1.0756 -0.26331,0.2444 -0.63969,0.367 -1.13261,0.367 l -0.43659,0 0,-2.879 z m 21.05772,0 0.43659,0 c 0.49503,0 0.87563,0.1185 1.13894,0.3607 0.26331,0.2422 0.3923,0.6038 0.3923,1.0757 0,0.4739 -0.13321,0.8313 -0.39863,1.0756 -0.26331,0.2444 -0.63969,0.367 -1.13261,0.367 l -0.43659,0 0,-2.879 z m -114.79873,0.1835 0.63907,1.8793 -1.29079,0 0.65172,-1.8793 z m 26.99286,0 0.64539,1.8793 -1.29079,0 0.6454,-1.8793 z m 9.75691,0 0.6454,1.8793 -1.2908,0 0.6454,-1.8793 z m 52.68226,0 0.6454,1.8793 -1.29713,0 0.65173,-1.8793 z m 15.6351,0 0.6454,1.8793 -1.29713,0 0.65173,-1.8793 z m 75.88501,0 0.6454,1.8793 -1.2972,0 0.6518,-1.8793 z m -106.65535,1.2908 0,0.9238 1.98049,0 0,-0.9238 -1.98049,0 z m 81.71255,0 0,0.9238 1.98048,0 0,-0.9238 -1.98048,0 z"
         style="font-size:medium;font-style:normal;font-variant:normal;font-weight:normal;font-stretch:normal;text-indent:0;text-align:start;text-decoration:none;line-height:normal;letter-spacing:normal;word-spacing:normal;text-transform:none;direction:ltr;block-progression:tb;writing-mode:lr-tb;text-anchor:start;baseline-shift:baseline;color:#000000;fill:#ffffff;fill-opacity:1;fill-rule:evenodd;stroke:none;stroke-width:5.77906704;marker:none;visibility:visible;display:inline;overflow:visible;enable-background:accumulate;font-family:Sans;-inkscape-font-specification:Sans" />
      <path
         style="font-size:medium;font-style:normal;font-variant:normal;font-weight:normal;font-stretch:normal;text-indent:0;text-align:start;text-decoration:none;line-height:normal;letter-spacing:normal;word-spacing:normal;text-transform:none;direction:ltr;block-progression:tb;writing-mode:lr-tb;text-anchor:start;baseline-shift:baseline;color:#000000;fill:#ffffff;fill-opacity:1;fill-rule:nonzero;stroke:none;stroke-width:2.13013363;marker:none;visibility:visible;display:inline;overflow:visible;enable-background:accumulate;font-family:Sans;-inkscape-font-specification:Sans"
         d="m 760.4375,973.09375 a 1.0651733,1.0651733 0 0 0 0.0937,2.125 l 264.18755,0 a 1.0651733,1.0651733 0 1 0 0,-2.125 l -264.18755,0 a 1.0651733,1.0651733 0 0 0 -0.0937,0 z"
         id="path5222"
         inkscape:connector-curvature="0" />
    </g>
    <path
       inkscape:export-ydpi="360"
       inkscape:export-xdpi="360"
       inkscape:export-filename="/home/alan/Desktop/APGs e CCPG/APOGEEU/apogeeu-logo-simples.png"
       id="path2483"
       d="M 377.31712,422.84915 C 237.48347,507.39171 192.41485,690.28501 276.95749,830.1186 c 84.54265,139.83357 267.43596,184.9023 407.26943,100.35963 l 161.87652,-97.8697 C 985.93722,748.06578 1031.0059,565.17291 946.46309,425.33907 861.92042,285.50541 679.02749,240.43692 539.19365,324.97948 l -161.87653,97.86967 z m 86.69568,136.34944 154.16029,-93.20453 c 63.63439,-38.47308 146.45799,-18.06341 184.93087,45.5708 38.47272,63.63427 18.06348,146.45798 -45.57079,184.93088 L 603.37288,789.70029 C 539.73856,828.17326 456.9149,807.76369 418.442,744.12947 379.96904,680.49508 400.3786,597.67149 464.0128,559.19859 z"
       style="fill:#ffffff;fill-opacity:1;stroke:none"
       inkscape:connector-curvature="0" />
    <path
       id="path13"
       inkscape:export-ydpi="360"
       inkscape:export-xdpi="360"
       inkscape:export-filename="/home/alan/Desktop/APGs e CCPG/APOGEEU/apogeeu-logo-simples.png"
       sodipodi:nodetypes="cccc"
       d="M 492.87246,274.50694 427.46833,754.39886 633.69568,607.1706 617.42932,1049.4135 769.76967,457.86503 524.79617,605.9747 492.87246,274.50694 z"
       style="fill:#ff6600;fill-rule:evenodd;stroke:none"
       inkscape:connector-curvature="0" />
    <path
       inkscape:connector-curvature="0"
       id="path3979"
       d="m 492.40513,256.78928 a 17.741057,17.741057 0 0 0 -17.1154,15.3191 L 409.89598,752.0056 a 17.741057,17.741057 0 0 0 27.87308,16.83283 L 614.63491,642.572 599.6993,1048.76 a 17.741057,17.741057 0 0 0 34.91703,5.0862 L 786.93935,462.29517 A 17.741057,17.741057 0 0 0 760.6002,442.67705 L 539.75504,576.20945 510.52969,272.81478 a 17.741057,17.741057 0 0 0 -18.12456,-16.0255 z m -2.56328,171.33564 17.29705,179.55023 a 17.741057,17.741057 0 0 0 26.84373,13.48241 L 741.74904,495.53699 641.19607,885.96182 651.42898,607.81643 A 17.741057,17.741057 0 0 0 623.39444,592.73954 L 450.60561,716.0794 489.84185,428.12492 z"
       style="font-size:medium;font-style:normal;font-variant:normal;font-weight:normal;font-stretch:normal;text-indent:0;text-align:start;text-decoration:none;line-height:normal;letter-spacing:normal;word-spacing:normal;text-transform:none;direction:ltr;block-progression:tb;writing-mode:lr-tb;text-anchor:start;baseline-shift:baseline;color:#000000;fill:#ffcc00;fill-opacity:1;fill-rule:evenodd;stroke:none;stroke-width:54.93193436;marker:none;visibility:visible;display:inline;overflow:visible;enable-background:accumulate;font-family:Sans;-inkscape-font-specification:Sans" />
    <g
       id="g3121">
      <path
         inkscape:connector-curvature="0"
         id="path5374"
         d="m 225.06175,993.36344 c -45.46566,-8.16163 -55.06036,-27.8153 -19.55478,-40.05582 5.19335,-1.79041 6.53115,-2.81328 6.81118,-5.20784 1.36535,-11.67474 7.07693,-17.23373 20.16039,-19.62176 7.42601,-1.35542 8.50658,-1.29687 10.36507,0.56162 3.26999,3.26998 0.55901,6.16241 -6.61424,7.05693 -8.02684,1.00095 -13.65112,4.04471 -14.62207,7.9132 -1.13214,4.51082 0.45395,5.25753 8.69023,4.09129 4.03212,-0.57093 9.94673,-1.16131 13.14357,-1.31195 3.80155,-0.17913 6.50905,-1.04364 7.826,-2.49885 4.15949,-4.59618 11.40968,-1.19133 11.40968,5.35825 0,4.25166 -2.80476,6.27307 -7.62543,5.49574 -5.23779,-0.84459 -29.23165,1.47629 -31.0938,3.00763 -0.89541,0.73638 -1.46067,4.90239 -1.47378,10.86212 -0.0116,5.31719 -0.59475,10.73923 -1.29572,12.049 -1.40279,2.62112 -0.93,2.8909 7.58301,4.32709 4.58283,0.77315 4.58283,0.77315 1.52732,-3.72939 -3.4936,-5.14814 -3.73796,-7.49403 -1.37077,-13.15955 3.28096,-7.8524 15.2475,-13.34068 18.72336,-8.58716 2.51826,3.44391 1.86748,5.37128 -2.08021,6.16082 -3.71342,0.74268 -4.67028,2.1062 -2.44371,3.48229 0.67201,0.41534 1.22184,2.29596 1.22184,4.17917 0,2.93873 0.40849,3.34595 2.88195,2.87312 1.88161,-0.3597 3.1406,0.12322 3.62723,1.3913 0.80959,2.10973 -0.13792,5.60778 -1.51891,5.60778 -0.4717,0 -1.92492,0.80727 -3.22939,1.79392 -2.15026,1.62636 -1.46033,1.79756 7.38586,1.83279 9.75766,0.0389 9.75766,0.0389 5.86688,-2.71031 -6.92479,-4.89297 -6.22448,-17.36214 1.25017,-22.25973 4.99625,-3.27364 11.90725,-3.88076 13.85494,-1.21711 2.39672,3.2777 2.07223,4.21236 -1.94917,5.61422 -3.22904,1.12565 -3.47736,1.57371 -2.41742,4.36157 0.84326,2.21792 0.73672,3.64697 -0.3723,4.99387 -1.35866,1.6501 -1.10824,1.77586 1.99606,1.00238 6.14466,-1.53104 7.97363,5.23039 2.25416,8.33324 -3.28654,1.78298 -3.19962,1.8213 3.97106,1.75001 11.45665,-0.11387 14.46485,-1.28883 9.70726,-3.79151 -9.79534,-5.15275 -8.60193,-19.79029 1.97055,-24.16956 6.54879,-2.7126 -2.70463,-5.10339 -11.78329,-3.04443 -7.41922,1.68261 -11.16624,-8.12896 -4.71797,-12.35403 2.94715,-1.93104 3.29994,-1.9123 6.41477,0.34068 2.15388,1.55792 7.31852,2.92077 14.90375,3.93284 52.7366,7.0364 64.74895,30.88304 21.30605,42.29627 -22.76472,5.98073 -66.22132,7.44214 -90.68938,3.04986 z m -11.15738,-22.01939 c -0.32843,-12.42422 0.14953,-11.86158 -7.91629,-9.31905 -16.96746,5.34853 -17.07671,12.31594 -0.284,18.11404 8.4927,2.93232 8.50981,2.91397 8.20029,-8.79499 z m 104.61493,9.67478 c 17.4052,-6.96589 19.15297,-11.38849 6.62964,-16.77588 -15.17288,-6.52719 -25.32355,-7.7542 -25.25367,-3.05266 0.0378,2.53912 -0.7455,3.5006 -3.6174,4.44056 -12.03255,3.93822 -8.19189,12.25561 4.65576,10.08261 10.72197,-1.81347 11.24727,-1.685 11.04822,2.70211 -0.19831,4.37137 0.96353,4.83403 6.53745,2.60326 z"
         style="fill:#4d4d4d;fill-opacity:1" />
      <path
         style="fill:#ffffff;fill-opacity:1"
         d="m 249.23635,992.6516 c -36.64495,-2.36968 -63.53662,-11.43039 -63.53662,-21.40765 0,-5.56378 11.41071,-13.8614 23.23578,-16.89656 8.95387,-2.29821 8.67268,-2.0846 7.14818,-5.43057 -2.94781,-6.46971 3.0773,-15.41092 11.88253,-17.63354 10.30364,-2.60085 13.93896,-2.86471 13.93896,-1.01173 0,2.19868 -2.62477,3.24074 -8.1628,3.24074 -9.17837,0 -15.05249,5.32897 -15.05249,13.65553 0,3.76568 0,3.76568 11.02759,2.90301 6.06514,-0.47447 12.65577,-1.32963 14.64582,-1.90037 2.2628,-0.64896 3.90491,-0.57382 4.38353,0.20061 1.42405,2.30414 -1.30742,3.18464 -13.8394,4.46119 -15.78574,1.60798 -14.99229,0.89791 -15.0144,13.43684 -0.0175,10.0052 -1.24504,15.26106 -3.12489,13.38118 -0.45803,-0.45802 -0.9003,-5.48265 -0.98283,-11.16583 -0.18292,-12.59455 -0.30112,-12.72573 -9.02336,-10.01464 -40.87913,12.70623 -0.13838,32.78896 62.63505,30.87529 77.57101,-2.36476 90.40105,-27.78347 18.63334,-36.91612 -6.96974,-0.88691 -7.73134,-3.03254 -1.07646,-3.03254 24.49005,0 52.69993,11.33313 52.69993,21.17183 0,13.4064 -47.01744,24.88981 -90.41746,22.08333 z"
         id="path5397"
         inkscape:connector-curvature="0" />
      <path
         style="fill:#ffffff;fill-opacity:1"
         d="m 260.08783,982.37841 c -3.48024,-2.03347 -5.36994,-8.25125 -3.2563,-10.71424 0.99453,-1.15888 2.13717,-3.03724 2.5392,-4.17412 1.48967,-4.21241 15.46015,-9.95807 14.0696,-5.78643 -0.30825,0.92476 -2.30294,2.03775 -4.43263,2.47332 -7.2516,1.48311 -9.66259,5.99109 -3.20416,5.99109 4.16836,0 3.72292,2.31273 -0.74543,3.87041 -4.95083,1.72587 -4.38698,5.15632 0.93232,5.6722 2.14751,0.20826 4.99628,-0.2056 6.33059,-0.91971 3.49962,-1.87293 4.42729,0.57137 1.10103,2.90115 -3.0205,2.11566 -10.25104,2.48782 -13.33422,0.68633 z"
         id="path5395"
         inkscape:connector-curvature="0" />
      <path
         style="fill:#ffffff;fill-opacity:1"
         d="m 232.13032,979.9429 c -2.49668,-2.49669 -3.42379,-9.77487 -1.24513,-9.77487 0.65921,0 1.55874,-1.43494 1.9989,-3.18875 1.20296,-4.79294 13.90851,-10.25132 13.90851,-5.97518 0,1.11774 -1.13892,1.83278 -2.91927,1.83278 -3.52883,0 -8.78422,3.97717 -7.65971,5.7967 0.44361,0.71777 1.90569,1.0176 3.24907,0.66631 1.65979,-0.43405 2.44249,-0.0369 2.44249,1.23948 0,1.10103 -1.54493,2.21753 -3.73361,2.69824 -4.08648,0.89755 -4.50644,3.65349 -0.90251,5.92297 1.51657,0.95502 3.28827,0.87696 6.5062,-0.28667 5.05828,-1.82909 7.21458,-0.79136 3.69831,1.77982 -3.59817,2.63104 -12.40959,2.22282 -15.34325,-0.71083 z"
         id="path5393"
         inkscape:connector-curvature="0" />
      <path
         style="fill:#ff0000;fill-opacity:1"
         d="m 253.20738,952.27541 c -2.4157,-1.01051 -1.71083,-4.52283 1.3541,-6.74743 3.60425,-2.61604 5.98122,-1.14124 5.46397,3.39012 -0.40164,3.51831 -3.17203,4.88249 -6.81807,3.35731 z"
         id="path5372"
         inkscape:connector-curvature="0" />
      <path
         inkscape:connector-curvature="0"
         id="path5370"
         d="m 259.90035,991.27961 c 2.16907,-0.26991 6.01792,-0.27434 8.55298,-0.01 2.5351,0.26456 0.76037,0.4854 -3.94379,0.49081 -4.70412,0.005 -6.77828,-0.211 -4.60919,-0.4809 z m -21.35528,-1.21515 c 1.84808,-0.27996 4.87217,-0.27996 6.72021,0 1.84809,0.27995 0.33603,0.50902 -3.3601,0.50902 -3.6961,0 -5.20816,-0.22907 -3.36011,-0.50902 z m 43.37598,0.013 c 1.51202,-0.29124 3.98631,-0.29124 5.49834,0 1.51206,0.29124 0.27493,0.52951 -2.74916,0.52951 -3.02412,0 -4.26125,-0.23827 -2.74918,-0.52951 z m -54.98363,-1.16876 c 0.84002,-0.33897 2.21462,-0.33897 3.05464,0 0.84005,0.33897 0.15275,0.61629 -1.52732,0.61629 -1.68004,0 -2.36733,-0.27732 -1.52732,-0.61629 z m 66.61453,-0.0376 c 1.1888,-0.3098 2.83833,-0.28943 3.66555,0.0453 0.82727,0.3347 -0.14544,0.58815 -2.1615,0.56327 -2.01606,-0.0249 -2.69288,-0.29876 -1.50405,-0.60854 z m 9.21704,-1.20979 c 0.88202,-0.35296 1.93588,-0.30955 2.34189,0.0965 0.406,0.40602 -0.31564,0.6948 -1.60369,0.64175 -1.42338,-0.0586 -1.7129,-0.34816 -0.7382,-0.73821 z m 19.77883,-5.27463 c 1.00804,-0.65144 2.38263,-1.18443 3.05464,-1.18443 0.672,0 0.39711,0.53299 -0.61092,1.18443 -1.00803,0.65145 -2.38263,1.18444 -3.05467,1.18444 -0.67201,0 -0.39707,-0.53299 0.61095,-1.18444 z m -62.88113,-2.39448 c -3.73652,-4.1288 -1.63864,-8.63076 3.94976,-8.47596 l 4.55868,0.12629 -4.58195,1.21695 c -7.637,2.02836 -6.14209,6.66601 2.70768,8.40009 l 4.31798,0.84609 -4.3926,0.14051 c -2.94289,0.0942 -5.10774,-0.64974 -6.55955,-2.25397 z m -64.79438,-0.0352 c -0.42807,-0.69262 0.0624,-0.89745 1.14975,-0.4802 2.11676,0.81228 2.50406,1.68807 0.74649,1.68807 -0.63236,0 -1.48567,-0.54354 -1.89624,-1.20787 z m 38.324,-0.93038 c -1.55114,-1.9779 -1.49364,-2.00382 0.76681,-0.34575 1.34405,0.98588 2.67281,1.94809 2.95281,2.13825 0.28003,0.19016 -0.065,0.34575 -0.76677,0.34575 -0.70174,0 -2.03051,-0.96221 -2.95285,-2.13825 z m 8.70887,1.66983 c 0,-0.25763 1.10043,-0.75619 2.4454,-1.10791 1.345,-0.35172 2.13728,-0.14093 1.7607,0.46842 -0.65767,1.06412 -4.2061,1.60362 -4.2061,0.63949 z m 29.32462,-0.0118 c 0,-0.26411 0.8533,-0.80765 1.89623,-1.20786 1.08736,-0.41726 1.57779,-0.21242 1.14975,0.4802 -0.71756,1.16097 -3.04598,1.71721 -3.04598,0.72761 z m 22.98618,-0.35446 c 0.88202,-0.35296 1.93589,-0.30955 2.34189,0.0965 0.40604,0.40602 -0.31564,0.6948 -1.6037,0.64175 -1.42337,-0.0586 -1.7129,-0.34816 -0.73819,-0.73821 z m -77.88393,-2.5255 c 0.33573,-3.58255 2.19184,-5.57896 2.27197,-2.44371 0.0472,1.84806 -0.46396,3.36011 -1.136,3.36011 -0.67201,0 -1.18321,-0.41238 -1.13597,-0.9164 z m 69.40417,-1.22186 c -1.51983,-1.93793 -1.47663,-1.98115 0.46133,-0.46131 2.03528,1.59619 2.68255,2.59957 1.67691,2.59957 -0.25371,0 -1.21594,-0.96222 -2.13824,-2.13826 z m 49.42043,-1.08615 c 0.55064,-0.82873 1.46559,-3.05399 2.03321,-4.94502 0.83696,-2.78827 1.05193,-2.94412 1.13709,-0.82441 0.0578,1.4376 -0.8572,3.66286 -2.03324,4.94502 -1.17605,1.28216 -1.68771,1.65314 -1.13706,0.82441 z m -102.51723,-3.80128 c 0.50403,-0.50401 2.46758,-0.91639 4.36346,-0.91639 1.89592,0 3.19224,0.41238 2.88072,0.91639 -0.31149,0.50402 -2.27503,0.91639 -4.36346,0.91639 -2.0884,0 -3.38472,-0.41237 -2.88072,-0.91639 z m 30.93338,-7.78823 c 0.82884,-0.83504 1.81476,-1.21046 2.19095,-0.83427 0.3762,0.3762 -0.30192,1.05942 -1.50696,1.51826 -1.74137,0.66309 -1.88172,0.52274 -0.68399,-0.68399 z m 6.20602,-1.90491 c 0.88202,-0.35296 1.93589,-0.30955 2.34189,0.0965 0.406,0.40601 -0.31564,0.6948 -1.6037,0.64175 -1.42337,-0.0586 -1.7129,-0.34817 -0.73819,-0.73821 z m 23.44439,-0.85561 c 0,-0.25763 1.10043,-0.75619 2.4454,-1.10791 1.345,-0.35172 2.13728,-0.14092 1.7607,0.46842 -0.65767,1.06413 -4.2061,1.60363 -4.2061,0.63949 z m -76.63525,-3.54586 c -1.80321,-3.95769 0.64818,-5.86043 7.21448,-5.59974 4.05138,0.16086 4.05138,0.16086 -0.21588,0.9164 -3.53195,0.62536 -4.37422,1.37572 -4.88792,4.35459 -0.62062,3.59903 -0.62062,3.59903 -2.11068,0.32875 z m 88.54837,-4.12607 c 0.84005,-0.33897 2.21461,-0.33897 3.05467,0 0.84002,0.33895 0.15271,0.61628 -1.52736,0.61628 -1.68003,0 -2.36733,-0.27733 -1.52731,-0.61628 z m -6.03292,-1.24732 c 0.88202,-0.35296 1.93588,-0.30956 2.34188,0.0965 0.40604,0.40601 -0.31563,0.69479 -1.60366,0.64174 -1.42341,-0.0586 -1.71293,-0.34816 -0.73822,-0.73821 z m -67.20218,-1.22186 c 0.88202,-0.35296 1.93588,-0.30955 2.34189,0.0965 0.406,0.40601 -0.31564,0.69479 -1.6037,0.64174 -1.42338,-0.0586 -1.7129,-0.34816 -0.73819,-0.7382 z m 58.64917,0 c 0.88205,-0.35296 1.93588,-0.30955 2.34192,0.0965 0.406,0.40601 -0.31567,0.69479 -1.6037,0.64174 -1.42342,-0.0586 -1.71293,-0.34816 -0.73822,-0.7382 z m -71.86051,-13.06709 c 0,-0.25372 0.9622,-1.21593 2.13823,-2.13825 1.93797,-1.51984 1.98116,-1.47661 0.46133,0.46132 -1.59621,2.03531 -2.59956,2.68256 -2.59956,1.67693 z"
         style="fill:#e6e6e6;fill-opacity:1" />
      <text
         xml:space="preserve"
         style="font-size:18.47745895px;font-style:normal;font-variant:normal;font-weight:bold;font-stretch:normal;text-align:end;line-height:125%;letter-spacing:0px;word-spacing:0px;writing-mode:lr-tb;text-anchor:end;fill:#ffffff;fill-opacity:1;stroke:none;font-family:Ubuntu;-inkscape-font-specification:Ubuntu Bold"
         x="310.3208"
         y="919.42822"
         id="text5409"
         sodipodi:linespacing="125%"><tspan
           sodipodi:role="line"
           id="tspan5411"
           x="310.3208"
           y="919.42822">Patrocínio:</tspan></text>
      <text
         xml:space="preserve"
         style="font-size:10.25199795px;font-style:normal;font-variant:normal;font-weight:normal;font-stretch:normal;text-align:center;line-height:125%;letter-spacing:0px;word-spacing:0px;writing-mode:lr-tb;text-anchor:middle;fill:#ffffff;fill-opacity:1;stroke:none;font-family:Ubuntu;-inkscape-font-specification:Ubuntu"
         x="262.94318"
         y="1011.0347"
         id="text5413"
         sodipodi:linespacing="125%"><tspan
           sodipodi:role="line"
           id="tspan5415"
           x="262.94318"
           y="1011.0347">FACULDADE DE ENGENHARIA</tspan><tspan
           sodipodi:role="line"
           x="262.94318"
           y="1023.8497"
           id="tspan5417">ELÉTRICA E DE COMPUTAÇÃO</tspan></text>
      <path
         style="fill:#ffffff;fill-opacity:1"
         d="m 291.46609,981.06982 c -12.14809,-2.06251 -12.04317,-14.60302 0.17181,-20.53753 2.97568,-1.44569 5.95099,-2.29438 6.61178,-1.88598 1.89547,1.17145 -0.9578,3.80449 -4.99842,4.61262 -4.9857,0.99714 -8.15566,6.02195 -6.32863,10.03179 2.70856,5.9447 8.6039,6.57744 21.89746,2.35022 2.18934,-0.6962 2.61618,-0.48617 2.04375,1.00558 -1.29273,3.36886 -11.67031,5.73528 -19.39775,4.4233 z"
         id="path5391"
         inkscape:connector-curvature="0" />
      <path
         style="fill:#ff0000;fill-opacity:1"
         d="m 273.97895,952.94084 c -1.70767,-0.63478 -2.74915,-2.03979 -2.74915,-3.70866 0,-1.47771 0.36772,-2.31898 0.8172,-1.8695 0.44949,0.44948 1.87375,-0.13887 3.165,-1.30746 2.23155,-2.01951 2.42667,-2.01683 3.94098,0.0541 3.22447,4.40972 -0.0518,8.73553 -5.17403,6.8315 z"
         id="path5389"
         inkscape:connector-curvature="0" />
    </g>
  </g>
  <g
     sodipodi:insensitive="true"
     inkscape:groupmode="layer"
     inkscape:label="Printing Marks"
     id="printing-marks">
    <g
       id="CropMarks"
       inkscape:label="CropMarks">
      <path
         d="M 0,-70.866141732 L 0,-106.299212598"
         id="cropTL1"
         style="stroke:#000000;stroke-width:0.25;fill:none" />
      <path
         d="M -70.866141732,0 L -106.299212598,0"
         id="cropTL2"
         style="stroke:#000000;stroke-width:0.25;fill:none" />
      <path
         d="M 1052.3622,-70.866141732 L 1052.3622,-106.299212598"
         id="cropTR1"
         style="stroke:#000000;stroke-width:0.25;fill:none" />
      <path
         d="M 1123.22834173,0 L 1158.6614126,0"
         id="cropTR2"
         style="stroke:#000000;stroke-width:0.25;fill:none" />
      <path
         d="M 0,814.960621732 L 0,850.393692598"
         id="cropBL1"
         style="stroke:#000000;stroke-width:0.25;fill:none" />
      <path
         d="M -70.866141732,744.09448 L -106.299212598,744.09448"
         id="cropBL2"
         style="stroke:#000000;stroke-width:0.25;fill:none" />
      <path
         d="M 1052.3622,814.960621732 L 1052.3622,850.393692598"
         id="cropBR1"
         style="stroke:#000000;stroke-width:0.25;fill:none" />
      <path
         d="M 1123.22834173,744.09448 L 1158.6614126,744.09448"
         id="cropBR2"
         style="stroke:#000000;stroke-width:0.25;fill:none" />
    </g>
    <g
       id="RegistrationMarks"
       inkscape:label="RegistrationMarks">
      <g
         id="regMarkL">
        <path
           id="path3177"
           transform="translate(-88.582677165,318.897633701) rotate(0)"
           d="m -0.0,17.716535433 -3.5433070866,0 17.716535433,-17.716535433 -17.716535433,-17.716535433 3.5433070866,0 17.716535433,17.716535433 -17.716535433,17.716535433 z"
           style="stroke:none;fill-opacity:1;fill:#000000" />
        <path
           id="path3179"
           transform="translate(-88.582677165,318.897633701) rotate(0)"
           d="m -3.5433070866,17.716535433 -3.5433070866,0 17.716535433,-17.716535433 -17.716535433,-17.716535433 3.5433070866,0 17.716535433,17.716535433 -17.716535433,17.716535433 z"
           style="stroke:none;fill-opacity:1;fill:#00ffff" />
        <path
           id="path3181"
           transform="translate(-88.582677165,318.897633701) rotate(0)"
           d="m -7.0866141732,17.716535433 -3.5433070866,0 17.716535433,-17.716535433 -17.716535433,-17.716535433 3.5433070866,0 17.716535433,17.716535433 -17.716535433,17.716535433 z"
           style="stroke:none;fill-opacity:1;fill:#ff00ff" />
        <path
           id="path3183"
           transform="translate(-88.582677165,318.897633701) rotate(0)"
           d="m -10.6299212598,17.716535433 -3.5433070866,0 17.716535433,-17.716535433 -17.716535433,-17.716535433 3.5433070866,0 17.716535433,17.716535433 -17.716535433,17.716535433 z"
           style="stroke:none;fill-opacity:1;fill:#ffff00" />
        <path
           id="path3185"
           transform="translate(-88.582677165,318.897633701) rotate(0)"
           d="m -14.1732283464,17.716535433 -3.5433070866,0 17.716535433,-17.716535433 -17.716535433,-17.716535433 3.5433070866,0 17.716535433,17.716535433 -17.716535433,17.716535433 z"
           style="stroke:none;fill-opacity:1;fill:#000000" />
      </g>
      <g
         id="regMarkR">
        <path
           id="path3188"
           transform="translate(1140.94487716,318.897633701) rotate(180)"
           d="m -0.0,17.716535433 -3.5433070866,0 17.716535433,-17.716535433 -17.716535433,-17.716535433 3.5433070866,0 17.716535433,17.716535433 -17.716535433,17.716535433 z"
           style="stroke:none;fill-opacity:1;fill:#000000" />
        <path
           id="path3190"
           transform="translate(1140.94487716,318.897633701) rotate(180)"
           d="m -3.5433070866,17.716535433 -3.5433070866,0 17.716535433,-17.716535433 -17.716535433,-17.716535433 3.5433070866,0 17.716535433,17.716535433 -17.716535433,17.716535433 z"
           style="stroke:none;fill-opacity:1;fill:#00ffff" />
        <path
           id="path3192"
           transform="translate(1140.94487716,318.897633701) rotate(180)"
           d="m -7.0866141732,17.716535433 -3.5433070866,0 17.716535433,-17.716535433 -17.716535433,-17.716535433 3.5433070866,0 17.716535433,17.716535433 -17.716535433,17.716535433 z"
           style="stroke:none;fill-opacity:1;fill:#ff00ff" />
        <path
           id="path3194"
           transform="translate(1140.94487716,318.897633701) rotate(180)"
           d="m -10.6299212598,17.716535433 -3.5433070866,0 17.716535433,-17.716535433 -17.716535433,-17.716535433 3.5433070866,0 17.716535433,17.716535433 -17.716535433,17.716535433 z"
           style="stroke:none;fill-opacity:1;fill:#ffff00" />
        <path
           id="path3196"
           transform="translate(1140.94487716,318.897633701) rotate(180)"
           d="m -14.1732283464,17.716535433 -3.5433070866,0 17.716535433,-17.716535433 -17.716535433,-17.716535433 3.5433070866,0 17.716535433,17.716535433 -17.716535433,17.716535433 z"
           style="stroke:none;fill-opacity:1;fill:#000000" />
      </g>
      <g
         id="regMarkT">
        <path
           id="path3199"
           transform="translate(526.1811,-88.582677165) rotate(90)"
           d="m -0.0,17.716535433 -3.5433070866,0 17.716535433,-17.716535433 -17.716535433,-17.716535433 3.5433070866,0 17.716535433,17.716535433 -17.716535433,17.716535433 z"
           style="stroke:none;fill-opacity:1;fill:#000000" />
        <path
           id="path3201"
           transform="translate(526.1811,-88.582677165) rotate(90)"
           d="m -3.5433070866,17.716535433 -3.5433070866,0 17.716535433,-17.716535433 -17.716535433,-17.716535433 3.5433070866,0 17.716535433,17.716535433 -17.716535433,17.716535433 z"
           style="stroke:none;fill-opacity:1;fill:#00ffff" />
        <path
           id="path3203"
           transform="translate(526.1811,-88.582677165) rotate(90)"
           d="m -7.0866141732,17.716535433 -3.5433070866,0 17.716535433,-17.716535433 -17.716535433,-17.716535433 3.5433070866,0 17.716535433,17.716535433 -17.716535433,17.716535433 z"
           style="stroke:none;fill-opacity:1;fill:#ff00ff" />
        <path
           id="path3205"
           transform="translate(526.1811,-88.582677165) rotate(90)"
           d="m -10.6299212598,17.716535433 -3.5433070866,0 17.716535433,-17.716535433 -17.716535433,-17.716535433 3.5433070866,0 17.716535433,17.716535433 -17.716535433,17.716535433 z"
           style="stroke:none;fill-opacity:1;fill:#ffff00" />
        <path
           id="path3207"
           transform="translate(526.1811,-88.582677165) rotate(90)"
           d="m -14.1732283464,17.716535433 -3.5433070866,0 17.716535433,-17.716535433 -17.716535433,-17.716535433 3.5433070866,0 17.716535433,17.716535433 -17.716535433,17.716535433 z"
           style="stroke:none;fill-opacity:1;fill:#000000" />
      </g>
      <g
         id="regMarkB">
        <path
           id="path3210"
           transform="translate(526.1811,832.677157165) rotate(-90)"
           d="m -0.0,17.716535433 -3.5433070866,0 17.716535433,-17.716535433 -17.716535433,-17.716535433 3.5433070866,0 17.716535433,17.716535433 -17.716535433,17.716535433 z"
           style="stroke:none;fill-opacity:1;fill:#000000" />
        <path
           id="path3212"
           transform="translate(526.1811,832.677157165) rotate(-90)"
           d="m -3.5433070866,17.716535433 -3.5433070866,0 17.716535433,-17.716535433 -17.716535433,-17.716535433 3.5433070866,0 17.716535433,17.716535433 -17.716535433,17.716535433 z"
           style="stroke:none;fill-opacity:1;fill:#00ffff" />
        <path
           id="path3214"
           transform="translate(526.1811,832.677157165) rotate(-90)"
           d="m -7.0866141732,17.716535433 -3.5433070866,0 17.716535433,-17.716535433 -17.716535433,-17.716535433 3.5433070866,0 17.716535433,17.716535433 -17.716535433,17.716535433 z"
           style="stroke:none;fill-opacity:1;fill:#ff00ff" />
        <path
           id="path3216"
           transform="translate(526.1811,832.677157165) rotate(-90)"
           d="m -10.6299212598,17.716535433 -3.5433070866,0 17.716535433,-17.716535433 -17.716535433,-17.716535433 3.5433070866,0 17.716535433,17.716535433 -17.716535433,17.716535433 z"
           style="stroke:none;fill-opacity:1;fill:#ffff00" />
        <path
           id="path3218"
           transform="translate(526.1811,832.677157165) rotate(-90)"
           d="m -14.1732283464,17.716535433 -3.5433070866,0 17.716535433,-17.716535433 -17.716535433,-17.716535433 3.5433070866,0 17.716535433,17.716535433 -17.716535433,17.716535433 z"
           style="stroke:none;fill-opacity:1;fill:#000000" />
      </g>
    </g>
    <g
       id="PrintingColourBars"
       inkscape:label="ColourBars">
      <g
         transform="translate(561.614170866,-88.582677165) rotate(0)"
         id="PrintingColourBarsT">
        <rect
           id="rect3222"
           fill="rgb(0,0,0)"
           stroke-width="0.5"
           x="0.0"
           y="-12.811023622"
           stroke="#000"
           width="11.811023622"
           height="11.811023622" />
        <rect
           id="rect3224"
           fill="rgb(25.5,25.5,25.5)"
           stroke-width="0.5"
           x="11.811023622"
           y="-12.811023622"
           stroke="#000"
           width="11.811023622"
           height="11.811023622" />
        <rect
           id="rect3226"
           fill="rgb(51.0,51.0,51.0)"
           stroke-width="0.5"
           x="23.622047244"
           y="-12.811023622"
           stroke="#000"
           width="11.811023622"
           height="11.811023622" />
        <rect
           id="rect3228"
           fill="rgb(76.5,76.5,76.5)"
           stroke-width="0.5"
           x="35.433070866"
           y="-12.811023622"
           stroke="#000"
           width="11.811023622"
           height="11.811023622" />
        <rect
           id="rect3230"
           fill="rgb(102.0,102.0,102.0)"
           stroke-width="0.5"
           x="47.244094488"
           y="-12.811023622"
           stroke="#000"
           width="11.811023622"
           height="11.811023622" />
        <rect
           id="rect3232"
           fill="rgb(127.5,127.5,127.5)"
           stroke-width="0.5"
           x="59.05511811"
           y="-12.811023622"
           stroke="#000"
           width="11.811023622"
           height="11.811023622" />
        <rect
           id="rect3234"
           fill="rgb(153.0,153.0,153.0)"
           stroke-width="0.5"
           x="70.866141732"
           y="-12.811023622"
           stroke="#000"
           width="11.811023622"
           height="11.811023622" />
        <rect
           id="rect3236"
           fill="rgb(178.5,178.5,178.5)"
           stroke-width="0.5"
           x="82.677165354"
           y="-12.811023622"
           stroke="#000"
           width="11.811023622"
           height="11.811023622" />
        <rect
           id="rect3238"
           fill="rgb(204.0,204.0,204.0)"
           stroke-width="0.5"
           x="94.488188976"
           y="-12.811023622"
           stroke="#000"
           width="11.811023622"
           height="11.811023622" />
        <rect
           id="rect3240"
           fill="rgb(229.5,229.5,229.5)"
           stroke-width="0.5"
           x="106.299212598"
           y="-12.811023622"
           stroke="#000"
           width="11.811023622"
           height="11.811023622" />
        <rect
           id="rect3242"
           fill="rgb(255.0,255.0,255.0)"
           stroke-width="0.5"
           x="118.11023622"
           y="-12.811023622"
           stroke="#000"
           width="11.811023622"
           height="11.811023622" />
        <rect
           id="rect3244"
           fill="rgb(0,255,255)"
           stroke-width="0.5"
           x="0.0"
           y="0"
           stroke="#0FF"
           width="11.811023622"
           height="11.811023622" />
        <rect
           id="rect3246"
           fill="rgb(25.5,255,255)"
           stroke-width="0.5"
           x="11.811023622"
           y="0"
           stroke="#0FF"
           width="11.811023622"
           height="11.811023622" />
        <rect
           id="rect3248"
           fill="rgb(51.0,255,255)"
           stroke-width="0.5"
           x="23.622047244"
           y="0"
           stroke="#0FF"
           width="11.811023622"
           height="11.811023622" />
        <rect
           id="rect3250"
           fill="rgb(76.5,255,255)"
           stroke-width="0.5"
           x="35.433070866"
           y="0"
           stroke="#0FF"
           width="11.811023622"
           height="11.811023622" />
        <rect
           id="rect3252"
           fill="rgb(102.0,255,255)"
           stroke-width="0.5"
           x="47.244094488"
           y="0"
           stroke="#0FF"
           width="11.811023622"
           height="11.811023622" />
        <rect
           id="rect3254"
           fill="rgb(127.5,255,255)"
           stroke-width="0.5"
           x="59.05511811"
           y="0"
           stroke="#0FF"
           width="11.811023622"
           height="11.811023622" />
        <rect
           id="rect3256"
           fill="rgb(153.0,255,255)"
           stroke-width="0.5"
           x="70.866141732"
           y="0"
           stroke="#0FF"
           width="11.811023622"
           height="11.811023622" />
        <rect
           id="rect3258"
           fill="rgb(178.5,255,255)"
           stroke-width="0.5"
           x="82.677165354"
           y="0"
           stroke="#0FF"
           width="11.811023622"
           height="11.811023622" />
        <rect
           id="rect3260"
           fill="rgb(204.0,255,255)"
           stroke-width="0.5"
           x="94.488188976"
           y="0"
           stroke="#0FF"
           width="11.811023622"
           height="11.811023622" />
        <rect
           id="rect3262"
           fill="rgb(229.5,255,255)"
           stroke-width="0.5"
           x="106.299212598"
           y="0"
           stroke="#0FF"
           width="11.811023622"
           height="11.811023622" />
        <rect
           id="rect3264"
           fill="rgb(255.0,255,255)"
           stroke-width="0.5"
           x="118.11023622"
           y="0"
           stroke="#0FF"
           width="11.811023622"
           height="11.811023622" />
        <rect
           id="rect3266"
           fill="rgb(255,0,255)"
           stroke-width="0.5"
           x="130.921259842"
           y="-12.811023622"
           stroke="#F0F"
           width="11.811023622"
           height="11.811023622" />
        <rect
           id="rect3268"
           fill="rgb(255,25.5,255)"
           stroke-width="0.5"
           x="142.732283464"
           y="-12.811023622"
           stroke="#F0F"
           width="11.811023622"
           height="11.811023622" />
        <rect
           id="rect3270"
           fill="rgb(255,51.0,255)"
           stroke-width="0.5"
           x="154.543307086"
           y="-12.811023622"
           stroke="#F0F"
           width="11.811023622"
           height="11.811023622" />
        <rect
           id="rect3272"
           fill="rgb(255,76.5,255)"
           stroke-width="0.5"
           x="166.354330708"
           y="-12.811023622"
           stroke="#F0F"
           width="11.811023622"
           height="11.811023622" />
        <rect
           id="rect3274"
           fill="rgb(255,102.0,255)"
           stroke-width="0.5"
           x="178.16535433"
           y="-12.811023622"
           stroke="#F0F"
           width="11.811023622"
           height="11.811023622" />
        <rect
           id="rect3276"
           fill="rgb(255,127.5,255)"
           stroke-width="0.5"
           x="189.976377952"
           y="-12.811023622"
           stroke="#F0F"
           width="11.811023622"
           height="11.811023622" />
        <rect
           id="rect3278"
           fill="rgb(255,153.0,255)"
           stroke-width="0.5"
           x="201.787401574"
           y="-12.811023622"
           stroke="#F0F"
           width="11.811023622"
           height="11.811023622" />
        <rect
           id="rect3280"
           fill="rgb(255,178.5,255)"
           stroke-width="0.5"
           x="213.598425196"
           y="-12.811023622"
           stroke="#F0F"
           width="11.811023622"
           height="11.811023622" />
        <rect
           id="rect3282"
           fill="rgb(255,204.0,255)"
           stroke-width="0.5"
           x="225.409448818"
           y="-12.811023622"
           stroke="#F0F"
           width="11.811023622"
           height="11.811023622" />
        <rect
           id="rect3284"
           fill="rgb(255,229.5,255)"
           stroke-width="0.5"
           x="237.22047244"
           y="-12.811023622"
           stroke="#F0F"
           width="11.811023622"
           height="11.811023622" />
        <rect
           id="rect3286"
           fill="rgb(255,255.0,255)"
           stroke-width="0.5"
           x="249.031496062"
           y="-12.811023622"
           stroke="#F0F"
           width="11.811023622"
           height="11.811023622" />
        <rect
           id="rect3288"
           fill="rgb(255,255,0)"
           stroke-width="0.5"
           x="130.921259842"
           y="0"
           stroke="#FF0"
           width="11.811023622"
           height="11.811023622" />
        <rect
           id="rect3290"
           fill="rgb(255,255,25.5)"
           stroke-width="0.5"
           x="142.732283464"
           y="0"
           stroke="#FF0"
           width="11.811023622"
           height="11.811023622" />
        <rect
           id="rect3292"
           fill="rgb(255,255,51.0)"
           stroke-width="0.5"
           x="154.543307086"
           y="0"
           stroke="#FF0"
           width="11.811023622"
           height="11.811023622" />
        <rect
           id="rect3294"
           fill="rgb(255,255,76.5)"
           stroke-width="0.5"
           x="166.354330708"
           y="0"
           stroke="#FF0"
           width="11.811023622"
           height="11.811023622" />
        <rect
           id="rect3296"
           fill="rgb(255,255,102.0)"
           stroke-width="0.5"
           x="178.16535433"
           y="0"
           stroke="#FF0"
           width="11.811023622"
           height="11.811023622" />
        <rect
           id="rect3298"
           fill="rgb(255,255,127.5)"
           stroke-width="0.5"
           x="189.976377952"
           y="0"
           stroke="#FF0"
           width="11.811023622"
           height="11.811023622" />
        <rect
           id="rect3300"
           fill="rgb(255,255,153.0)"
           stroke-width="0.5"
           x="201.787401574"
           y="0"
           stroke="#FF0"
           width="11.811023622"
           height="11.811023622" />
        <rect
           id="rect3302"
           fill="rgb(255,255,178.5)"
           stroke-width="0.5"
           x="213.598425196"
           y="0"
           stroke="#FF0"
           width="11.811023622"
           height="11.811023622" />
        <rect
           id="rect3304"
           fill="rgb(255,255,204.0)"
           stroke-width="0.5"
           x="225.409448818"
           y="0"
           stroke="#FF0"
           width="11.811023622"
           height="11.811023622" />
        <rect
           id="rect3306"
           fill="rgb(255,255,229.5)"
           stroke-width="0.5"
           x="237.22047244"
           y="0"
           stroke="#FF0"
           width="11.811023622"
           height="11.811023622" />
        <rect
           id="rect3308"
           fill="rgb(255,255,255.0)"
           stroke-width="0.5"
           x="249.031496062"
           y="0"
           stroke="#FF0"
           width="11.811023622"
           height="11.811023622" />
      </g>
      <g
         transform="translate(561.614170866,832.677157165) rotate(0)"
         id="PrintingColourBarsB">
        <rect
           id="rect3311"
           fill="rgb(0,0,0)"
           stroke-width="0.5"
           x="0.0"
           y="-12.811023622"
           stroke="#000"
           width="11.811023622"
           height="11.811023622" />
        <rect
           id="rect3313"
           fill="rgb(25.5,25.5,25.5)"
           stroke-width="0.5"
           x="11.811023622"
           y="-12.811023622"
           stroke="#000"
           width="11.811023622"
           height="11.811023622" />
        <rect
           id="rect3315"
           fill="rgb(51.0,51.0,51.0)"
           stroke-width="0.5"
           x="23.622047244"
           y="-12.811023622"
           stroke="#000"
           width="11.811023622"
           height="11.811023622" />
        <rect
           id="rect3317"
           fill="rgb(76.5,76.5,76.5)"
           stroke-width="0.5"
           x="35.433070866"
           y="-12.811023622"
           stroke="#000"
           width="11.811023622"
           height="11.811023622" />
        <rect
           id="rect3319"
           fill="rgb(102.0,102.0,102.0)"
           stroke-width="0.5"
           x="47.244094488"
           y="-12.811023622"
           stroke="#000"
           width="11.811023622"
           height="11.811023622" />
        <rect
           id="rect3321"
           fill="rgb(127.5,127.5,127.5)"
           stroke-width="0.5"
           x="59.05511811"
           y="-12.811023622"
           stroke="#000"
           width="11.811023622"
           height="11.811023622" />
        <rect
           id="rect3323"
           fill="rgb(153.0,153.0,153.0)"
           stroke-width="0.5"
           x="70.866141732"
           y="-12.811023622"
           stroke="#000"
           width="11.811023622"
           height="11.811023622" />
        <rect
           id="rect3325"
           fill="rgb(178.5,178.5,178.5)"
           stroke-width="0.5"
           x="82.677165354"
           y="-12.811023622"
           stroke="#000"
           width="11.811023622"
           height="11.811023622" />
        <rect
           id="rect3327"
           fill="rgb(204.0,204.0,204.0)"
           stroke-width="0.5"
           x="94.488188976"
           y="-12.811023622"
           stroke="#000"
           width="11.811023622"
           height="11.811023622" />
        <rect
           id="rect3329"
           fill="rgb(229.5,229.5,229.5)"
           stroke-width="0.5"
           x="106.299212598"
           y="-12.811023622"
           stroke="#000"
           width="11.811023622"
           height="11.811023622" />
        <rect
           id="rect3331"
           fill="rgb(255.0,255.0,255.0)"
           stroke-width="0.5"
           x="118.11023622"
           y="-12.811023622"
           stroke="#000"
           width="11.811023622"
           height="11.811023622" />
        <rect
           id="rect3333"
           fill="rgb(0,255,255)"
           stroke-width="0.5"
           x="0.0"
           y="0"
           stroke="#0FF"
           width="11.811023622"
           height="11.811023622" />
        <rect
           id="rect3335"
           fill="rgb(25.5,255,255)"
           stroke-width="0.5"
           x="11.811023622"
           y="0"
           stroke="#0FF"
           width="11.811023622"
           height="11.811023622" />
        <rect
           id="rect3337"
           fill="rgb(51.0,255,255)"
           stroke-width="0.5"
           x="23.622047244"
           y="0"
           stroke="#0FF"
           width="11.811023622"
           height="11.811023622" />
        <rect
           id="rect3339"
           fill="rgb(76.5,255,255)"
           stroke-width="0.5"
           x="35.433070866"
           y="0"
           stroke="#0FF"
           width="11.811023622"
           height="11.811023622" />
        <rect
           id="rect3341"
           fill="rgb(102.0,255,255)"
           stroke-width="0.5"
           x="47.244094488"
           y="0"
           stroke="#0FF"
           width="11.811023622"
           height="11.811023622" />
        <rect
           id="rect3343"
           fill="rgb(127.5,255,255)"
           stroke-width="0.5"
           x="59.05511811"
           y="0"
           stroke="#0FF"
           width="11.811023622"
           height="11.811023622" />
        <rect
           id="rect3345"
           fill="rgb(153.0,255,255)"
           stroke-width="0.5"
           x="70.866141732"
           y="0"
           stroke="#0FF"
           width="11.811023622"
           height="11.811023622" />
        <rect
           id="rect3347"
           fill="rgb(178.5,255,255)"
           stroke-width="0.5"
           x="82.677165354"
           y="0"
           stroke="#0FF"
           width="11.811023622"
           height="11.811023622" />
        <rect
           id="rect3349"
           fill="rgb(204.0,255,255)"
           stroke-width="0.5"
           x="94.488188976"
           y="0"
           stroke="#0FF"
           width="11.811023622"
           height="11.811023622" />
        <rect
           id="rect3351"
           fill="rgb(229.5,255,255)"
           stroke-width="0.5"
           x="106.299212598"
           y="0"
           stroke="#0FF"
           width="11.811023622"
           height="11.811023622" />
        <rect
           id="rect3353"
           fill="rgb(255.0,255,255)"
           stroke-width="0.5"
           x="118.11023622"
           y="0"
           stroke="#0FF"
           width="11.811023622"
           height="11.811023622" />
        <rect
           id="rect3355"
           fill="rgb(255,0,255)"
           stroke-width="0.5"
           x="130.921259842"
           y="-12.811023622"
           stroke="#F0F"
           width="11.811023622"
           height="11.811023622" />
        <rect
           id="rect3357"
           fill="rgb(255,25.5,255)"
           stroke-width="0.5"
           x="142.732283464"
           y="-12.811023622"
           stroke="#F0F"
           width="11.811023622"
           height="11.811023622" />
        <rect
           id="rect3359"
           fill="rgb(255,51.0,255)"
           stroke-width="0.5"
           x="154.543307086"
           y="-12.811023622"
           stroke="#F0F"
           width="11.811023622"
           height="11.811023622" />
        <rect
           id="rect3361"
           fill="rgb(255,76.5,255)"
           stroke-width="0.5"
           x="166.354330708"
           y="-12.811023622"
           stroke="#F0F"
           width="11.811023622"
           height="11.811023622" />
        <rect
           id="rect3363"
           fill="rgb(255,102.0,255)"
           stroke-width="0.5"
           x="178.16535433"
           y="-12.811023622"
           stroke="#F0F"
           width="11.811023622"
           height="11.811023622" />
        <rect
           id="rect3365"
           fill="rgb(255,127.5,255)"
           stroke-width="0.5"
           x="189.976377952"
           y="-12.811023622"
           stroke="#F0F"
           width="11.811023622"
           height="11.811023622" />
        <rect
           id="rect3367"
           fill="rgb(255,153.0,255)"
           stroke-width="0.5"
           x="201.787401574"
           y="-12.811023622"
           stroke="#F0F"
           width="11.811023622"
           height="11.811023622" />
        <rect
           id="rect3369"
           fill="rgb(255,178.5,255)"
           stroke-width="0.5"
           x="213.598425196"
           y="-12.811023622"
           stroke="#F0F"
           width="11.811023622"
           height="11.811023622" />
        <rect
           id="rect3371"
           fill="rgb(255,204.0,255)"
           stroke-width="0.5"
           x="225.409448818"
           y="-12.811023622"
           stroke="#F0F"
           width="11.811023622"
           height="11.811023622" />
        <rect
           id="rect3373"
           fill="rgb(255,229.5,255)"
           stroke-width="0.5"
           x="237.22047244"
           y="-12.811023622"
           stroke="#F0F"
           width="11.811023622"
           height="11.811023622" />
        <rect
           id="rect3375"
           fill="rgb(255,255.0,255)"
           stroke-width="0.5"
           x="249.031496062"
           y="-12.811023622"
           stroke="#F0F"
           width="11.811023622"
           height="11.811023622" />
        <rect
           id="rect3377"
           fill="rgb(255,255,0)"
           stroke-width="0.5"
           x="130.921259842"
           y="0"
           stroke="#FF0"
           width="11.811023622"
           height="11.811023622" />
        <rect
           id="rect3379"
           fill="rgb(255,255,25.5)"
           stroke-width="0.5"
           x="142.732283464"
           y="0"
           stroke="#FF0"
           width="11.811023622"
           height="11.811023622" />
        <rect
           id="rect3381"
           fill="rgb(255,255,51.0)"
           stroke-width="0.5"
           x="154.543307086"
           y="0"
           stroke="#FF0"
           width="11.811023622"
           height="11.811023622" />
        <rect
           id="rect3383"
           fill="rgb(255,255,76.5)"
           stroke-width="0.5"
           x="166.354330708"
           y="0"
           stroke="#FF0"
           width="11.811023622"
           height="11.811023622" />
        <rect
           id="rect3385"
           fill="rgb(255,255,102.0)"
           stroke-width="0.5"
           x="178.16535433"
           y="0"
           stroke="#FF0"
           width="11.811023622"
           height="11.811023622" />
        <rect
           id="rect3387"
           fill="rgb(255,255,127.5)"
           stroke-width="0.5"
           x="189.976377952"
           y="0"
           stroke="#FF0"
           width="11.811023622"
           height="11.811023622" />
        <rect
           id="rect3389"
           fill="rgb(255,255,153.0)"
           stroke-width="0.5"
           x="201.787401574"
           y="0"
           stroke="#FF0"
           width="11.811023622"
           height="11.811023622" />
        <rect
           id="rect3391"
           fill="rgb(255,255,178.5)"
           stroke-width="0.5"
           x="213.598425196"
           y="0"
           stroke="#FF0"
           width="11.811023622"
           height="11.811023622" />
        <rect
           id="rect3393"
           fill="rgb(255,255,204.0)"
           stroke-width="0.5"
           x="225.409448818"
           y="0"
           stroke="#FF0"
           width="11.811023622"
           height="11.811023622" />
        <rect
           id="rect3395"
           fill="rgb(255,255,229.5)"
           stroke-width="0.5"
           x="237.22047244"
           y="0"
           stroke="#FF0"
           width="11.811023622"
           height="11.811023622" />
        <rect
           id="rect3397"
           fill="rgb(255,255,255.0)"
           stroke-width="0.5"
           x="249.031496062"
           y="0"
           stroke="#FF0"
           width="11.811023622"
           height="11.811023622" />
      </g>
    </g>
  </g>
</svg>
