<?xml version="1.0" encoding="UTF-8" standalone="no"?>
<!-- Created with Inkscape (http://www.inkscape.org/) -->

<svg
   xmlns:dc="http://purl.org/dc/elements/1.1/"
   xmlns:cc="http://creativecommons.org/ns#"
   xmlns:rdf="http://www.w3.org/1999/02/22-rdf-syntax-ns#"
   xmlns:svg="http://www.w3.org/2000/svg"
   xmlns="http://www.w3.org/2000/svg"
   version="1.1"
   width="210mm"
   height="297mm"
   id="svg2">
  <defs
     id="defs4" />
  <metadata
     id="metadata7">
    <rdf:RDF>
      <cc:Work
         rdf:about="">
        <dc:format>image/svg+xml</dc:format>
        <dc:type
           rdf:resource="http://purl.org/dc/dcmitype/StillImage" />
        <dc:title></dc:title>
      </cc:Work>
    </rdf:RDF>
  </metadata>
  <g
     id="layer1">
    <text
       x="464.19791"
       y="-13.877197"
       id="text2985"
       xml:space="preserve"
       style="font-size:7.89974928px;font-style:normal;font-variant:normal;font-weight:normal;font-stretch:normal;text-align:end;line-height:125%;letter-spacing:0px;word-spacing:0px;writing-mode:lr-tb;text-anchor:end;fill:#000000;fill-opacity:1;stroke:none;font-family:LMSansQuot8;-inkscape-font-specification:LMSansQuot8"><tspan
         x="464.19791"
         y="-13.877197"
         id="tspan3147"
         style="font-size:7.89974928px;font-style:normal;font-variant:normal;font-weight:normal;font-stretch:normal;text-align:end;line-height:125%;writing-mode:lr-tb;text-anchor:end;fill:#ffcc00;font-family:LMSansQuot8;-inkscape-font-specification:LMSansQuot8">UNICAMP</tspan><tspan
         x="464.19791"
         y="-4.0025105"
         id="tspan3151"
         style="font-size:7.89974928px;font-style:normal;font-variant:normal;font-weight:normal;font-stretch:normal;text-align:end;line-height:125%;writing-mode:lr-tb;text-anchor:end;fill:#ffcc00;font-family:LMSansQuot8;-inkscape-font-specification:LMSansQuot8">Modo de uso</tspan></text>
    <rect
       width="744.09448"
       height="1052.3622"
       x="0"
       y="0"
       id="rect3975"
       style="fill:#216778;fill-opacity:1;stroke:none" />
    <path
       d="M 217.65625,0 C 163.19304,4.2795377 108.92744,20.921048 59.125,51.03125 L 0,86.78125 0,317.6875 155.71875,223.53125 c 77.83305,-47.05753 179.13021,-22.11407 226.1875,55.71875 47.05708,77.8329 22.11415,179.16145 -55.71875,226.21875 l -188.5625,114 C 94.553633,645.50947 44.276225,649.48022 0,634.65625 L 0,840.4375 c 79.396189,10.88294 162.82438,-4.23729 236.5,-48.78125 L 434.5,671.9375 C 605.53471,568.53083 660.65672,344.84728 557.25,173.8125 494.45747,69.95361 387.31041,8.8343102 274.53125,0 l -56.875,0 z"
       id="path2483"
       style="fill:#000000;fill-opacity:1;stroke:none" />
    <path
       d="m 1,0 -1,7.4375 0,513.5 174.71875,-124.75 L 154.8125,937.125 341.15625,213.59375 41.5,394.75 3.5,0 1,0 z"
       id="path13"
       style="fill:#ff6600;fill-rule:evenodd;stroke:none" />
    <path
       d="m 0,0 0,190.1875 19.90625,206.625 a 21.699595,21.699595 0 0 0 32.84375,16.5 L 306.875,259.65625 183.875,737.1875 196.40625,397 a 21.699595,21.699595 0 0 0 -34.3125,-18.4375 L 0,494.25 0,547.59375 151.40625,439.5 133.125,936.3125 a 21.699595,21.699595 0 0 0 42.71875,6.21875 L 362.15625,219 A 21.699595,21.699595 0 0 0 329.9375,195 L 59.8125,358.34375 25.28125,0 0,0 z"
       id="path3979"
       style="font-size:medium;font-style:normal;font-variant:normal;font-weight:normal;font-stretch:normal;text-indent:0;text-align:start;text-decoration:none;line-height:normal;letter-spacing:normal;word-spacing:normal;text-transform:none;direction:ltr;block-progression:tb;writing-mode:lr-tb;text-anchor:start;baseline-shift:baseline;color:#000000;fill:#ffcc00;fill-opacity:1;fill-rule:evenodd;stroke:none;stroke-width:54.93193436;marker:none;visibility:visible;display:inline;overflow:visible;enable-background:accumulate;font-family:Sans;-inkscape-font-specification:Sans" />
    <text
       x="724.81433"
       y="851.03711"
       id="text3987"
       xml:space="preserve"
       style="font-size:57.01867676px;font-style:normal;font-weight:normal;text-align:end;line-height:125%;letter-spacing:0px;word-spacing:0px;text-anchor:end;fill:#000000;fill-opacity:1;stroke:none;font-family:Bitstream Vera Sans"><tspan
         x="724.81433"
         y="851.03711"
         id="tspan3989"
         style="font-size:79.82614136px;font-style:normal;font-variant:normal;font-weight:bold;font-stretch:normal;text-align:end;line-height:125%;writing-mode:lr-tb;text-anchor:end;font-family:Ubuntu;-inkscape-font-specification:Ubuntu Bold">Unicamp</tspan><tspan
         x="724.81433"
         y="927.6947"
         id="tspan3991"
         style="font-size:57.01867676px;font-style:normal;font-variant:normal;font-weight:normal;font-stretch:normal;text-align:end;line-height:125%;writing-mode:lr-tb;text-anchor:end;font-family:Ubuntu;-inkscape-font-specification:Ubuntu">Modo de usar</tspan></text>
    <path
       d="m 428.72857,966.64501 c -0.72923,0.075 -1.28255,0.69125 -1.27877,1.42437 l 0,4.3977 c 7e-5,0.7866 0.63771,1.4242 1.42432,1.4243 l 10.2406,0 c 3.61966,0 6.7301,2.1523 8.09891,5.2503 -2.38753,-1.3995 -5.14259,-2.2561 -8.09891,-2.2561 l -10.2406,0 c -8.85511,0 -16.07306,7.218 -16.07306,16.0731 0,8.85512 7.21795,16.07312 16.07306,16.07312 l 10.2406,0 c 8.85511,0 16.07307,-7.218 16.07307,-16.07312 l 0,-10.2406 c 0,-8.8551 -7.21796,-16.07307 -16.07307,-16.07307 l -10.2406,0 c -0.0485,-0.002 -0.097,-0.002 -0.14555,0 z m 95.13881,5.64537 a 0.96141368,0.96141368 0 0 0 -0.66538,0.3534 l -2.68231,3.3269 -6.09237,0 c -8.35126,0 -15.32899,6.0936 -16.72805,14.0562 -1.38261,-7.4612 -7.93852,-13.1413 -15.79236,-13.1413 l -10.26139,0 c -8.85511,0 -16.07306,7.218 -16.07306,16.0731 l 0,24.89972 c 8e-5,0.7866 0.63771,1.4243 1.42432,1.4244 l 4.40814,0 c 0.78661,-10e-5 1.42425,-0.6378 1.42433,-1.4244 l 0,-11.4778 c 2.53282,1.669 5.56331,2.6512 8.81627,2.6512 l 10.26139,0 c 7.85384,0 14.40976,-5.6801 15.79236,-13.14132 1.09042,6.22362 5.58191,11.30212 11.48818,13.22442 l -1.99613,3.0358 a 0.96141368,0.96141368 0 0 0 1.47631,1.206 l 3.618,-3.5452 c 0.70213,0.089 1.41707,0.1352 2.14169,0.1352 l 10.25099,0 c 8.32938,0 15.2931,-6.0619 16.71765,-13.99382 1.4093,7.43152 7.96035,13.07892 15.79236,13.07892 l 10.26139,0 c 2.94771,0 5.68967,-0.8538 8.06772,-2.2457 -1.36655,3.099 -4.45297,5.2607 -8.06772,5.2607 l -10.26139,0 c -0.78662,0 -1.42425,0.6377 -1.42433,1.4243 l 0,4.3873 c 8e-5,0.7866 0.63771,1.4243 1.42433,1.4244 l 10.26139,0 c 8.85322,0 16.06267,-7.2095 16.06266,-16.0627 l 0,-10.26142 c 10e-6,-8.8532 -7.20755,-16.0731 -16.06266,-16.0731 l -10.26139,0 c -7.83201,0 -14.38306,5.6474 -15.79236,13.0789 -1.42455,-7.9319 -8.38827,-13.9938 -16.71765,-13.9938 l -0.97727,0 1.11243,-2.308 a 0.96141368,0.96141368 0 0 0 -0.94609,-1.3723 z m 76.10273,4.5952 c -8.8551,0 -16.07307,7.218 -16.07306,16.0731 0,8.85512 7.21795,16.07312 16.07306,16.07312 l 6.21714,0 4.02346,0 6.21713,0 c 0.78662,-10e-5 1.42426,-0.6378 1.42433,-1.4244 l 0,-4.3873 c -7e-5,-0.7866 -0.63771,-1.4243 -1.42433,-1.4243 l -6.21713,0 -4.02346,0 -6.21714,0 c -3.57121,0 -6.53939,-2.17182 -7.93257,-5.20872 l 32.66596,0 c 0.70514,-4e-4 1.2993,-0.519 1.40353,-1.2164 0.11866,-0.7889 0.17674,-1.5975 0.17674,-2.412 0,-8.8551 -7.21795,-16.0731 -16.07306,-16.0731 l -10.2406,0 z m 42.78179,0 c -8.85512,0 -16.07306,7.218 -16.07306,16.0731 -1e-5,8.85512 7.21796,16.07312 16.07306,16.07312 l 6.21714,0 4.02346,0 6.21714,0 c 0.78661,-10e-5 1.42425,-0.6378 1.42433,-1.4244 l 0,-4.3873 c -8e-5,-0.7866 -0.63772,-1.4243 -1.42433,-1.4243 l -6.21714,0 -4.02346,0 -6.21714,0 c -3.57123,0 -6.53939,-2.17182 -7.93256,-5.20872 l 32.66595,0 c 0.70515,-4e-4 1.2993,-0.519 1.40353,-1.2164 0.11865,-0.7889 0.17675,-1.5975 0.17675,-2.412 -2e-5,-8.8551 -7.21795,-16.0731 -16.07307,-16.0731 l -10.2406,0 z m 27.98751,0 c -0.72924,0.075 -1.28255,0.6913 -1.27878,1.4244 l 0,14.6487 c -1e-5,8.85512 7.20756,16.07312 16.06267,16.07312 l 10.251,0 c 8.85509,0 16.07307,-7.218 16.07306,-16.07312 l 0,-14.6487 c -8e-5,-0.7867 -0.63772,-1.4243 -1.42433,-1.4244 l -4.40813,0 c -0.78662,10e-5 -1.42425,0.6377 -1.42433,1.4244 l 0,14.6487 c -10e-6,4.8892 -3.92707,8.82662 -8.81627,8.82662 l -10.251,0 c -4.88921,10e-5 -8.83707,-3.94012 -8.83706,-8.82662 l 0,-14.6487 c -8e-5,-0.7867 -0.63772,-1.4243 -1.42433,-1.4244 l -4.37695,0 c -0.0485,0 -0.097,0 -0.14555,0 z m -156.31209,0.9149 4.60567,0 -5.69731,7.0593 c -3.91744,0.6212 -6.9241,3.9937 -6.9241,8.0781 0,4.4535 3.57829,8.07942 8.00534,8.19252 l -4.16902,6.3523 c -6.31584,-1.826 -10.97875,-7.62292 -10.97875,-14.52402 0,-8.3579 6.80023,-15.1582 15.15817,-15.1582 z m 8.40041,0 1.85058,0 c 8.35795,0 15.15817,6.8002 15.15817,15.1582 0,8.35802 -6.80022,15.15822 -15.15817,15.15822 l -10.25099,0 c -0.12749,0 -0.24914,-0.023 -0.37428,-0.031 l 7.08005,-6.9345 3.25412,0 c 4.52444,0 8.21326,-3.68892 8.21327,-8.21332 0,-0.9027 -0.18581,-1.755 -0.45745,-2.568 l 0.17674,-0.1663 a 0.96141368,0.96141368 0 0 0 -0.67577,-1.653 l -0.38467,0 c -1.45968,-2.2798 -3.97246,-3.826 -6.87212,-3.826 l -4.88638,0 3.3269,-6.9241 z m -3.3165,2.4744 -4.24179,8.8267 a 0.96141368,0.96141368 0 0 0 0.86291,1.3723 l 13.16203,0 -15.61562,15.28292 8.27566,-12.61102 a 0.96141368,0.96141368 0 0 0 -0.88371,-1.4867 l -11.46739,0.8837 9.90791,-12.2679 z m -47.62659,5.3646 9.76236,0 c 4.02971,0 7.29838,3.2687 7.29838,7.2984 -10e-6,4.0297 -3.26868,7.29842 -7.29838,7.29842 l -9.76236,0 c -4.02971,0 -7.29838,-3.26872 -7.29838,-7.29842 1e-5,-4.0297 3.26868,-7.2984 7.29838,-7.2984 z m -42.78179,0.073 9.76236,0 c 4.02971,0 7.29837,3.2687 7.29837,7.2984 -1e-5,4.0297 -3.26867,7.29832 -7.29837,7.29832 l -9.76236,0 c -4.02971,0 -7.29838,-3.26862 -7.29838,-7.29832 0,-4.0297 3.26868,-7.2984 7.29838,-7.2984 z m 128.33498,0 9.76236,0 c 4.02971,0 7.29838,3.2687 7.29838,7.2984 -10e-6,4.0297 -3.26868,7.29832 -7.29838,7.29832 l -9.76236,0 c -4.02971,0 -7.29837,-3.26862 -7.29837,-7.29832 0,-4.0297 3.26867,-7.2984 7.29837,-7.2984 z m 42.7714,0 9.76236,0 c 2.15146,0 4.09104,0.9302 5.427,2.412 l -20.60596,0 c 1.33596,-1.4818 3.26515,-2.412 5.4166,-2.412 z m 42.7714,0 9.76236,0 c 2.15146,0 4.09103,0.9302 5.42699,2.412 l -20.60595,0 c 1.33596,-1.4818 3.26514,-2.412 5.4166,-2.412 z m -124.36351,0.8421 5.77009,0 c 1.83368,0 3.47647,0.7653 4.63686,1.9962 l -11.36343,0 0.95648,-1.9962 z m -7.5271,1.0813 -2.42239,3.0045 c 0.47767,-1.2379 1.33308,-2.2813 2.42239,-3.0045 z m 19.5767,4.1794 c 0.0657,0.3644 0.10397,0.7371 0.10397,1.1228 -10e-6,3.535 -2.84852,6.3835 -6.38348,6.3835 l -1.38274,0 7.66225,-7.5063 z m -11.39461,1.9129 -3.66998,5.5934 -0.97728,0 c -2.9774,0 -5.464,-2.0223 -6.17555,-4.7721 l 10.82281,-0.8213 z m -54.95616,26.23052 c -0.19382,0 -0.36752,0.042 -0.50943,0.1248 -0.13845,0.083 -0.23921,0.1908 -0.31189,0.3327 -0.0692,0.1419 -0.1248,0.2948 -0.15595,0.447 -0.0311,0.1489 -0.0416,0.3087 -0.0416,0.4783 l 0.71736,0 c 0,-0.1939 0.0382,-0.3432 0.10397,-0.4471 0.0692,-0.1038 0.15609,-0.1559 0.27031,-0.1559 0.09,0 0.19421,0.031 0.3119,0.094 0.11767,0.062 0.23231,0.1318 0.33269,0.208 0.10383,0.076 0.22891,0.1456 0.38467,0.2079 0.15575,0.062 0.31902,0.094 0.47824,0.094 0.19382,0 0.36058,-0.042 0.49903,-0.1248 0.14191,-0.083 0.24267,-0.1942 0.3119,-0.3327 0.0727,-0.1419 0.12479,-0.2878 0.15595,-0.4366 0.0311,-0.1523 0.052,-0.3156 0.052,-0.4887 l -0.72776,0 c 0,0.405 -0.13202,0.603 -0.39507,0.603 -0.0865,0 -0.18728,-0.031 -0.3015,-0.093 -0.11422,-0.066 -0.21846,-0.1353 -0.32229,-0.208 -0.10038,-0.076 -0.22892,-0.1456 -0.38467,-0.2079 -0.1523,-0.066 -0.30863,-0.094 -0.46785,-0.094 z m 49.86185,0.042 -1.02926,1.3723 1.01886,0 1.48671,-1.3723 -1.47631,0 z m 106.76215,1.7362 0,10.6253 1.17481,0 0,-10.6253 -1.17481,0 z m -208.45078,0.2288 c -0.90684,0 -1.61905,0.2015 -2.1313,0.603 -0.51225,0.4015 -0.76934,0.999 -0.76934,1.7985 0,0.6473 0.18414,1.1545 0.56141,1.5076 0.38073,0.353 0.94007,0.6032 1.67385,0.7589 l 0.77974,0.1768 c 0.42918,0.093 0.72797,0.2046 0.9045,0.3326 0.17997,0.1281 0.2703,0.3227 0.27031,0.5822 -1e-5,0.097 -0.0174,0.1838 -0.052,0.2704 -0.0346,0.086 -0.0971,0.1768 -0.18714,0.2703 -0.09,0.09 -0.2255,0.1629 -0.41586,0.2183 -0.18691,0.052 -0.42314,0.073 -0.69657,0.073 -0.84453,0 -1.77214,-0.2606 -2.77588,-0.7902 l 0,1.6843 c 0.99682,0.3703 1.99389,0.5614 2.97341,0.5614 1.00374,0 1.76114,-0.2015 2.28724,-0.603 0.52609,-0.4015 0.79013,-1.0477 0.79014,-1.9338 -1e-5,-0.668 -0.19109,-1.1717 -0.57181,-1.5179 -0.37728,-0.3496 -0.97832,-0.6136 -1.809,-0.7797 l -0.85251,-0.1664 c -0.38074,-0.08 -0.6552,-0.1803 -0.82133,-0.2911 -0.16614,-0.1142 -0.24952,-0.2809 -0.24952,-0.499 0,-0.2596 0.1077,-0.4542 0.32229,-0.5926 0.21459,-0.1419 0.57591,-0.2079 1.08124,-0.2079 0.73723,0 1.53283,0.1876 2.39121,0.5718 l 0,-1.6427 c -0.94837,-0.2561 -1.84474,-0.3846 -2.7031,-0.3846 z m 7.66225,0 c -0.90683,0 -1.61904,0.2015 -2.13129,0.603 -0.51226,0.4015 -0.76935,0.999 -0.76935,1.7985 0,0.6473 0.18415,1.1545 0.56142,1.5076 0.38072,0.353 0.94007,0.6032 1.67384,0.7589 l 0.77974,0.1768 c 0.42919,0.093 0.72798,0.2046 0.9045,0.3326 0.17998,0.1281 0.27031,0.3227 0.27031,0.5822 0,0.097 -0.0174,0.1838 -0.052,0.2704 -0.0346,0.086 -0.0971,0.1768 -0.18714,0.2703 -0.09,0.09 -0.2255,0.1629 -0.41586,0.2183 -0.18691,0.052 -0.42314,0.073 -0.69657,0.073 -0.84453,0 -1.76174,-0.2606 -2.76548,-0.7902 l 0,1.6843 c 0.99682,0.3703 1.9835,0.5614 2.96302,0.5614 1.00373,0 1.76113,-0.2015 2.28724,-0.603 0.52609,-0.4015 0.79013,-1.0477 0.79013,-1.9338 0,-0.668 -0.19108,-1.1717 -0.57181,-1.5179 -0.37727,-0.3496 -0.97832,-0.6136 -1.809,-0.7797 l -0.85251,-0.1664 c -0.38074,-0.08 -0.6552,-0.1803 -0.82133,-0.2911 -0.16614,-0.1142 -0.24952,-0.2809 -0.24952,-0.499 0,-0.2596 0.1077,-0.4542 0.3223,-0.5926 0.21458,-0.1419 0.5759,-0.2079 1.08124,-0.2079 0.73722,0 1.53282,0.1876 2.3912,0.5718 l 0,-1.6427 c -0.94837,-0.2561 -1.84473,-0.3846 -2.7031,-0.3846 z m 8.51477,0 c -1.24256,0 -2.21189,0.3613 -2.92143,1.0708 -0.70608,0.7061 -1.06044,1.6858 -1.06044,2.9526 0,1.2668 0.35436,2.2569 1.06044,2.963 0.70954,0.7061 1.67887,1.0605 2.92143,1.0605 1.24256,0 2.21535,-0.3544 2.92143,-1.0605 0.70954,-0.7061 1.07084,-1.6962 1.07085,-2.963 -1e-5,-1.2702 -0.35438,-2.2569 -1.06045,-2.963 -0.70609,-0.7061 -1.68581,-1.0604 -2.93183,-1.0604 z m 9.25293,0 c -1.30141,0 -2.3367,0.3613 -3.08777,1.0812 -0.74762,0.7199 -1.11243,1.6996 -1.11243,2.9422 0,1.2426 0.37175,2.2223 1.12282,2.9422 0.75108,0.7165 1.77944,1.0813 3.07738,1.0813 0.85837,0 1.65397,-0.198 2.39121,-0.5822 l 0,-1.6011 c -0.71301,0.488 -1.45996,0.7278 -2.23526,0.7278 -0.72685,0 -1.29315,-0.2259 -1.69464,-0.6862 -0.4015,-0.4603 -0.603,-1.0892 -0.603,-1.8818 0,-0.7926 0.2015,-1.4214 0.603,-1.8817 0.40149,-0.4639 0.96779,-0.6862 1.69464,-0.6862 0.76837,0 1.51533,0.2397 2.23526,0.7277 l 0,-1.601 c -0.73724,-0.3842 -1.53284,-0.5822 -2.39121,-0.5822 z m 19.99256,0 c -1.30141,0 -2.3263,0.3613 -3.07738,1.0812 -0.74761,0.7199 -1.12282,1.6996 -1.12282,2.9422 0,1.2426 0.38214,2.2223 1.13322,2.9422 0.6906,0.6588 1.61254,1.0178 2.76548,1.0709 0.2343,0.3328 0.36388,0.576 0.36388,0.7277 0,0.1489 -0.066,0.2601 -0.18714,0.3327 -0.11768,0.076 -0.27055,0.1144 -0.45745,0.1144 -0.2319,0 -0.52026,-0.049 -0.86291,-0.156 l 0,0.7902 c 0.36688,0.09 0.72471,0.1351 1.06045,0.1351 0.46379,0 0.79731,-0.083 0.99807,-0.2495 0.20074,-0.1661 0.30149,-0.4058 0.3015,-0.7173 -10e-6,-0.2923 -0.16927,-0.6271 -0.47824,-0.9877 0.69461,-0.054 1.34322,-0.2428 1.95455,-0.5614 l 0,-1.6011 c -0.71301,0.488 -1.44956,0.7278 -2.22486,0.7278 -0.72686,0 -1.29315,-0.2259 -1.69464,-0.6862 -0.4015,-0.4603 -0.603,-1.0892 -0.603,-1.8818 0,-0.7926 0.2015,-1.4214 0.603,-1.8817 0.40149,-0.4639 0.96778,-0.6862 1.69464,-0.6862 0.76837,0 1.50493,0.2397 2.22486,0.7277 l 0,-1.601 c -0.73724,-0.3842 -1.53284,-0.5822 -2.39121,-0.5822 z m 15.82355,0 c -1.24257,0 -2.22229,0.3613 -2.93183,1.0708 -0.70608,0.7061 -1.06045,1.6858 -1.06045,2.9526 0,1.2668 0.35437,2.2569 1.06045,2.963 0.70954,0.7061 1.68926,1.0605 2.93183,1.0605 1.24256,0 2.21534,-0.3544 2.92143,-1.0605 0.70953,-0.7061 1.06043,-1.6962 1.06044,-2.963 -1e-5,-1.2702 -0.35437,-2.2569 -1.06044,-2.963 -0.70609,-0.7061 -1.67541,-1.0604 -2.92143,-1.0604 z m 40.30741,0 c -1.24256,0 -2.22228,0.3613 -2.93182,1.0708 -0.70608,0.7061 -1.06045,1.6858 -1.06045,2.9526 0,1.2668 0.35437,2.2569 1.06045,2.963 0.70954,0.7061 1.68926,1.0605 2.93182,1.0605 1.24256,0 2.21535,-0.3544 2.92143,-1.0605 0.70954,-0.7061 1.06044,-1.6962 1.06045,-2.963 -1e-5,-1.2702 -0.34398,-2.2569 -1.05005,-2.963 -0.70609,-0.7061 -1.68581,-1.0604 -2.93183,-1.0604 z m 8.17169,0 c -0.90683,0 -1.60864,0.2015 -2.1209,0.603 -0.51225,0.4015 -0.76934,0.999 -0.76934,1.7985 0,0.6473 0.18414,1.1545 0.56141,1.5076 0.38073,0.353 0.94007,0.6032 1.67385,0.7589 l 0.76934,0.1768 c 0.42918,0.093 0.73837,0.2046 0.9149,0.3326 0.17997,0.1281 0.2703,0.3227 0.27031,0.5822 -1e-5,0.097 -0.0174,0.1838 -0.052,0.2704 -0.0346,0.086 -0.0972,0.1768 -0.18714,0.2703 -0.09,0.09 -0.2359,0.1629 -0.42626,0.2183 -0.18691,0.052 -0.41274,0.073 -0.68617,0.073 -0.84453,0 -1.77214,-0.2606 -2.77588,-0.7902 l 0,1.6843 c 0.99682,0.3703 1.9835,0.5614 2.96301,0.5614 1.00374,0 1.77154,-0.2015 2.29764,-0.603 0.52609,-0.4015 0.79013,-1.0477 0.79014,-1.9338 -10e-6,-0.668 -0.19109,-1.1717 -0.57181,-1.5179 -0.37727,-0.3496 -0.97832,-0.6136 -1.809,-0.7797 l -0.85252,-0.1664 c -0.38073,-0.08 -0.65519,-0.1803 -0.82132,-0.2911 -0.16614,-0.1142 -0.24952,-0.2809 -0.24952,-0.499 0,-0.2596 0.1077,-0.4542 0.32229,-0.5926 0.21459,-0.1419 0.57591,-0.2079 1.08124,-0.2079 0.73723,0 1.53283,0.1876 2.39121,0.5718 l 0,-1.6427 c -0.94837,-0.2561 -1.85513,-0.3846 -2.7135,-0.3846 z m 13.26599,0 c -1.33948,0 -2.39217,0.3578 -3.16055,1.0708 -0.76492,0.7095 -1.14362,1.6927 -1.14362,2.9526 0,1.2426 0.37175,2.2223 1.12283,2.9422 0.75107,0.7165 1.77943,1.0813 3.07738,1.0813 1.14218,0 2.21224,-0.2432 3.21253,-0.7278 l 0,-3.7323 -3.11896,0 0,1.3411 1.22679,0 0,1.5075 c -0.27344,0.1073 -0.6278,0.156 -1.06045,0.156 -0.77184,0 -1.36593,-0.2189 -1.77781,-0.6654 -0.41188,-0.45 -0.6134,-1.0857 -0.61339,-1.9026 -1e-5,-0.8272 0.205,-1.4595 0.63419,-1.9025 0.42918,-0.4465 1.05105,-0.6654 1.85058,-0.6654 0.86183,0 1.71303,0.2397 2.56795,0.7277 l 0,-1.601 c -0.84107,-0.3842 -1.77912,-0.5822 -2.81747,-0.5822 z m 68.23255,0 c -1.24257,0 -2.22229,0.3613 -2.93183,1.0708 -0.70608,0.7061 -1.05005,1.6858 -1.05005,2.9526 0,1.2668 0.34397,2.2569 1.05005,2.963 0.70954,0.7061 1.68926,1.0605 2.93183,1.0605 1.24256,0 2.21534,-0.3544 2.92143,-1.0605 0.70953,-0.7061 1.07083,-1.6962 1.07084,-2.963 -10e-6,-1.2702 -0.35437,-2.2569 -1.06045,-2.963 -0.70608,-0.7061 -1.6858,-1.0604 -2.93182,-1.0604 z m 8.18208,0 c -0.90683,0 -1.61904,0.2015 -2.13129,0.603 -0.51226,0.4015 -0.76935,0.999 -0.76935,1.7985 0,0.6473 0.18415,1.1545 0.56142,1.5076 0.38072,0.353 0.94007,0.6032 1.67384,0.7589 l 0.77974,0.1768 c 0.42919,0.093 0.72798,0.2046 0.9045,0.3326 0.17998,0.1281 0.27031,0.3227 0.27031,0.5822 0,0.097 -0.0174,0.1838 -0.052,0.2704 -0.0346,0.086 -0.0971,0.1768 -0.18714,0.2703 -0.09,0.09 -0.2255,0.1629 -0.41586,0.2183 -0.18691,0.052 -0.42314,0.073 -0.69657,0.073 -0.84453,0 -1.77214,-0.2606 -2.77588,-0.7902 l 0,1.6843 c 0.99682,0.3703 1.9939,0.5614 2.97342,0.5614 1.00373,0 1.76113,-0.2015 2.28724,-0.603 0.52609,-0.4015 0.79013,-1.0477 0.79013,-1.9338 0,-0.668 -0.19108,-1.1717 -0.57181,-1.5179 -0.37727,-0.3496 -0.97832,-0.6136 -1.809,-0.7797 l -0.85251,-0.1664 c -0.38074,-0.08 -0.6552,-0.1803 -0.82133,-0.2911 -0.16614,-0.1142 -0.24952,-0.2809 -0.24952,-0.499 0,-0.2596 0.1077,-0.4542 0.3223,-0.5926 0.21459,-0.1419 0.5759,-0.2079 1.08124,-0.2079 0.73722,0 1.53282,0.1876 2.3912,0.5718 l 0,-1.6427 c -0.94837,-0.2561 -1.84473,-0.3846 -2.7031,-0.3846 z m 41.81492,0 c -1.30141,0 -2.33671,0.3613 -3.08778,1.0812 -0.74762,0.7199 -1.11243,1.6996 -1.11243,2.9422 0,1.2426 0.37175,2.2223 1.12283,2.9422 0.75107,0.7165 1.77943,1.0813 3.07738,1.0813 0.85836,0 1.65396,-0.198 2.3912,-0.5822 l 0,-1.6011 c -0.71301,0.488 -1.45996,0.7278 -2.23526,0.7278 -0.72685,0 -1.29314,-0.2259 -1.69463,-0.6862 -0.4015,-0.4603 -0.60301,-1.0892 -0.603,-1.8818 -10e-6,-0.7926 0.2015,-1.4214 0.603,-1.8817 0.40149,-0.4639 0.96778,-0.6862 1.69463,-0.6862 0.76838,0 1.51533,0.2397 2.23526,0.7277 l 0,-1.601 c -0.73724,-0.3842 -1.53284,-0.5822 -2.3912,-0.5822 z m 41.13913,0 c -1.3014,0 -2.3367,0.3613 -3.08777,1.0812 -0.74762,0.7199 -1.11243,1.6996 -1.11243,2.9422 0,1.2426 0.37175,2.2223 1.12283,2.9422 0.75107,0.7165 1.77943,1.0813 3.07737,1.0813 0.85837,0 1.65397,-0.198 2.39121,-0.5822 l 0,-1.6011 c -0.71301,0.488 -1.45996,0.7278 -2.23526,0.7278 -0.72685,0 -1.29314,-0.2259 -1.69463,-0.6862 -0.4015,-0.4603 -0.60301,-1.0892 -0.603,-1.8818 -10e-6,-0.7926 0.2015,-1.4214 0.603,-1.8817 0.40149,-0.4639 0.96778,-0.6862 1.69463,-0.6862 0.76838,0 1.51533,0.2397 2.23526,0.7277 l 0,-1.601 c -0.73724,-0.3842 -1.53284,-0.5822 -2.39121,-0.5822 z m -291.32166,0.1455 -2.86945,7.7454 2.00654,0 0.48864,-1.4139 3.12936,0 0.48863,1.4139 2.00654,0 -2.86945,-7.7454 -2.38081,0 z m 38.44643,0 0,7.7454 1.99614,0 0,-7.7454 -1.99614,0 z m 5.90524,0 -2.86944,7.7454 2.00653,0 0.49903,-1.4139 3.12936,0 0.47825,1.4139 2.01693,0 -2.86945,-7.7454 -2.39121,0 z m 16.03148,0 -2.86945,7.7454 2.01693,0 0.48864,-1.4139 3.12936,0 0.48864,1.4139 2.00653,0 -2.86944,-7.7454 -2.39121,0 z m 19.01528,0 0,7.7454 2.10011,0 c 1.16295,0 2.03844,-0.083 2.61993,-0.2495 0.2665,-0.08 0.52012,-0.1838 0.75895,-0.3119 0.24227,-0.128 0.47504,-0.2913 0.69656,-0.499 0.22497,-0.2077 0.41953,-0.4474 0.58221,-0.707 0.16267,-0.263 0.28775,-0.5722 0.38467,-0.9357 0.0969,-0.3634 0.14555,-0.7525 0.14555,-1.1748 0,-1.1491 -0.35438,-2.0732 -1.07084,-2.7655 -0.24229,-0.2353 -0.50633,-0.4229 -0.79014,-0.5718 -0.28036,-0.1523 -0.59998,-0.2704 -0.95648,-0.343 -0.35651,-0.076 -0.70741,-0.1214 -1.06045,-0.1456 -0.35304,-0.028 -0.79425,-0.042 -1.30996,-0.042 l -2.10011,0 z m 8.82667,0 0,7.7454 5.49978,0 0,-1.5075 -3.50364,0 0,-1.7778 3.19174,0 0,-1.5075 -3.19174,0 0,-1.4451 3.38928,0 0,-1.5075 -5.38542,0 z m 10.95797,0 0,7.7454 1.99613,0 0,-2.6823 1.32036,0 c 0.95529,0 1.71264,-0.2119 2.25605,-0.6342 0.5434,-0.4257 0.81093,-1.0615 0.81094,-1.9025 -10e-6,-0.8411 -0.26754,-1.4699 -0.81094,-1.8922 -0.53994,-0.4223 -1.2973,-0.6342 -2.25605,-0.6342 l -3.31649,0 z m 37.6355,0 0,7.7454 1.99614,0 0,-2.9318 0.56141,0 c 0.33919,0 0.6067,0.083 0.80053,0.2391 0.19729,0.1523 0.38489,0.4059 0.56142,0.7694 l 0.94608,1.9233 2.1313,0 -1.09164,-2.1936 c -0.20076,-0.4015 -0.39881,-0.7281 -0.6134,-0.9669 -0.21114,-0.2388 -0.46823,-0.3882 -0.76934,-0.4575 0.99335,-0.3115 1.4867,-0.982 1.4867,-1.9961 0,-0.3357 -0.0486,-0.6241 -0.14555,-0.8733 -0.0935,-0.2527 -0.24634,-0.4715 -0.46784,-0.6654 -0.22152,-0.1938 -0.53419,-0.3467 -0.9253,-0.447 -0.39112,-0.1004 -0.86708,-0.1456 -1.42432,-0.1456 l -3.04619,0 z m 10.12624,0 -2.86945,7.7454 2.00653,0 0.49904,-1.4139 3.11896,0 0.48864,1.4139 2.00653,0 -2.86944,-7.7454 -2.38081,0 z m 6.27951,0 0,7.7454 2.1001,0 c 1.16296,0 2.03845,-0.083 2.61993,-0.2495 0.26651,-0.08 0.52012,-0.1838 0.75895,-0.3119 0.24228,-0.128 0.47505,-0.2913 0.69657,-0.499 0.22497,-0.2077 0.41953,-0.4474 0.58221,-0.707 0.16267,-0.263 0.28775,-0.5722 0.38467,-0.9357 0.0969,-0.3634 0.14554,-0.7525 0.14555,-1.1748 -10e-6,-1.1491 -0.35439,-2.0732 -1.07084,-2.7655 -0.24229,-0.2353 -0.50633,-0.4229 -0.79014,-0.5718 -0.28036,-0.1523 -0.59999,-0.2704 -0.95648,-0.343 -0.35651,-0.076 -0.70741,-0.1214 -1.06045,-0.1456 -0.35304,-0.028 -0.79425,-0.042 -1.30997,-0.042 l -2.1001,0 z m 8.82667,0 0,4.6473 c 0,1.1006 0.27793,1.9171 0.83172,2.4535 0.55379,0.5331 1.38761,0.8006 2.50557,0.8006 1.12142,0 1.95177,-0.2675 2.50557,-0.8006 0.55378,-0.533 0.83172,-1.3494 0.83172,-2.4535 l 0,-4.6473 -1.99613,0 0,4.6473 c -1e-5,0.5953 -0.0938,1.0331 -0.29111,1.3307 -0.19383,0.2977 -0.54472,0.4471 -1.05005,0.4471 -0.49149,0 -0.83891,-0.1459 -1.03965,-0.4367 -0.20075,-0.2907 -0.30151,-0.732 -0.3015,-1.3411 l 0,-4.6473 -1.99614,0 z m 10.58369,0 -2.86945,7.7454 2.00653,0 0.48864,-1.4139 3.12936,0 0.48864,1.4139 2.00653,0 -2.86944,-7.7454 -2.38081,0 z m 6.27951,0 0,7.7454 1.89217,0 0,-5.3126 2.81747,5.3126 2.23525,0 0,-7.7454 -1.89217,0 0,5.3126 -2.82786,-5.3126 -2.22486,0 z m 8.90984,0 0,7.7454 2.1001,0 c 1.16296,0 2.03845,-0.083 2.61993,-0.2495 0.26651,-0.08 0.52012,-0.1838 0.75895,-0.3119 0.24228,-0.128 0.47505,-0.2913 0.69657,-0.499 0.22497,-0.2077 0.41953,-0.4474 0.58221,-0.707 0.16267,-0.263 0.28775,-0.5722 0.38467,-0.9357 0.0969,-0.3634 0.14555,-0.7525 0.14555,-1.1748 0,-1.1491 -0.35439,-2.0732 -1.07084,-2.7655 -0.24229,-0.2353 -0.50633,-0.4229 -0.79014,-0.5718 -0.28036,-0.1523 -0.59999,-0.2704 -0.95648,-0.343 -0.35651,-0.076 -0.70741,-0.1214 -1.06045,-0.1456 -0.35304,-0.028 -0.79425,-0.042 -1.30997,-0.042 l -2.1001,0 z m 36.79338,0 0,7.7454 1.99614,0 0,-3.2853 3.19174,0 0,-1.5075 -3.19174,0 0,-1.4451 3.39967,0 0,-1.5075 -5.39581,0 z m 7.26719,0 0,7.7454 5.51017,0 0,-1.5075 -3.50364,0 0,-1.7778 3.19175,0 0,-1.5075 -3.19175,0 0,-1.4451 3.38928,0 0,-1.5075 -5.39581,0 z m 7.26719,0 0,7.7454 5.51017,0 0,-1.5075 -3.50364,0 0,-1.7778 3.19174,0 0,-1.5075 -3.19174,0 0,-1.4451 3.38928,0 0,-1.5075 -5.39581,0 z m 26.89587,0 0,4.6473 c 0,1.1006 0.27793,1.9171 0.83172,2.4535 0.55379,0.5331 1.38761,0.8006 2.50557,0.8006 1.12142,0 1.96217,-0.2675 2.51596,-0.8006 0.55379,-0.533 0.83172,-1.3494 0.83173,-2.4535 l 0,-4.6473 -1.99614,0 0,4.6473 c -10e-6,0.5953 -0.10422,1.0331 -0.3015,1.3307 -0.19383,0.2977 -0.54472,0.4471 -1.05005,0.4471 -0.49149,0 -0.83891,-0.1459 -1.03966,-0.4367 -0.20075,-0.2907 -0.3015,-0.732 -0.3015,-1.3411 l 0,-4.6473 -1.99613,0 z m 8.63953,0 0,7.7454 1.89217,0 0,-5.3126 2.82786,5.3126 2.22486,0 0,-7.7454 -1.89217,0 0,5.3126 -2.81746,-5.3126 -2.23526,0 z m 8.90984,0 0,7.7454 1.99614,0 0,-7.7454 -1.99614,0 z m 13.72344,0 -2.86944,7.7454 2.00653,0 0.48864,-1.4139 3.12936,0 0.48864,1.4139 2.00653,0 -2.86945,-7.7454 -2.38081,0 z m 6.27952,0 0,7.7454 1.89217,0 0,-5.6661 1.78821,4.1794 1.26837,0 1.77781,-4.1794 0,5.6661 1.89218,0 0,-7.7454 -2.53676,0 -1.77781,4.1482 -1.76741,-4.1482 -2.53676,0 z m 10.58368,0 0,7.7454 2.00654,0 0,-2.6823 1.30996,0 c 0.95529,0 1.71265,-0.2119 2.25607,-0.6342 0.54338,-0.4257 0.8109,-1.0615 0.8109,-1.9025 0,-0.8411 -0.26752,-1.4699 -0.8109,-1.8922 -0.53996,-0.4223 -1.29732,-0.6342 -2.25607,-0.6342 l -3.3165,0 z m -289.04482,1.31 c 0.32881,0 0.6241,0.059 0.87331,0.1871 0.2492,0.1281 0.44031,0.3053 0.59261,0.5406 0.15228,0.2319 0.26693,0.5029 0.34308,0.811 0.0761,0.308 0.11436,0.652 0.11436,1.0292 0,0.3773 -0.0382,0.7212 -0.11436,1.0293 -0.0761,0.3046 -0.1908,0.5755 -0.34308,0.8109 -0.1523,0.2319 -0.34341,0.4126 -0.59261,0.5406 -0.24921,0.1281 -0.5445,0.1872 -0.87331,0.1872 -0.64032,0 -1.12323,-0.2294 -1.44512,-0.6966 -0.31843,-0.4672 -0.47824,-1.0926 -0.47824,-1.8714 0,-0.5088 0.066,-0.9535 0.19754,-1.3307 0.13152,-0.3773 0.34344,-0.6692 0.63419,-0.8942 0.29419,-0.2284 0.65898,-0.343 1.09163,-0.343 z m 45.06904,0 c 0.3288,0 0.6137,0.059 0.86291,0.1871 0.2492,0.1281 0.4507,0.3053 0.603,0.5406 0.15229,0.2319 0.26693,0.5029 0.34309,0.811 0.0761,0.308 0.11435,0.652 0.11436,1.0292 -1e-5,0.3773 -0.0382,0.7212 -0.11436,1.0293 -0.0762,0.3046 -0.1908,0.5755 -0.34309,0.8109 -0.1523,0.2319 -0.3538,0.4126 -0.603,0.5406 -0.24921,0.1281 -0.53411,0.1872 -0.86291,0.1872 -0.64032,0 -1.12324,-0.2294 -1.44512,-0.6966 -0.31843,-0.4672 -0.47825,-1.0926 -0.47824,-1.8714 -10e-6,-0.5088 0.066,-0.9535 0.19753,-1.3307 0.13152,-0.3773 0.34345,-0.6692 0.63419,-0.8942 0.2942,-0.2284 0.65898,-0.343 1.09164,-0.343 z m 40.30741,0 c 0.32881,0 0.61371,0.059 0.86292,0.1871 0.24919,0.1281 0.4507,0.3053 0.603,0.5406 0.15228,0.2319 0.26693,0.5029 0.34308,0.811 0.0761,0.308 0.11436,0.652 0.11436,1.0292 0,0.3773 -0.0382,0.7212 -0.11436,1.0293 -0.0762,0.3046 -0.1908,0.5755 -0.34308,0.8109 -0.1523,0.2319 -0.35381,0.4126 -0.603,0.5406 -0.24921,0.1281 -0.53411,0.1872 -0.86292,0.1872 -0.64032,0 -1.12323,-0.2294 -1.44512,-0.6966 -0.31843,-0.4672 -0.47824,-1.0926 -0.47824,-1.8714 0,-0.5088 0.066,-0.9535 0.19754,-1.3307 0.13152,-0.3773 0.34344,-0.6692 0.63418,-0.8942 0.2942,-0.2284 0.65899,-0.343 1.09164,-0.343 z m 89.67023,0 c 0.3288,0 0.6137,0.059 0.86291,0.1871 0.2492,0.1281 0.4507,0.3053 0.603,0.5406 0.15229,0.2319 0.26693,0.5029 0.34309,0.811 0.0761,0.308 0.11435,0.652 0.11436,1.0292 -10e-6,0.3773 -0.0382,0.7212 -0.11436,1.0293 -0.0762,0.3046 -0.1908,0.5755 -0.34309,0.8109 -0.1523,0.2319 -0.3538,0.4126 -0.603,0.5406 -0.24921,0.1281 -0.53411,0.1872 -0.86291,0.1872 -0.64032,0 -1.12324,-0.2294 -1.44512,-0.6966 -0.31843,-0.4672 -0.47825,-1.0926 -0.47824,-1.8714 -10e-6,-0.5088 0.066,-0.9535 0.19753,-1.3307 0.13152,-0.3773 0.34345,-0.6692 0.63419,-0.8942 0.2942,-0.2284 0.65898,-0.343 1.09164,-0.343 z m -99.00633,0.1351 1.11243,0 c 0.38419,0 0.68297,0.087 0.89411,0.2703 0.21458,0.1835 0.32228,0.4579 0.32229,0.811 -10e-6,0.353 -0.10771,0.624 -0.32229,0.8109 -0.21114,0.1834 -0.50992,0.2703 -0.89411,0.2703 l -1.11243,0 0,-2.1625 z m 37.63551,0 0.84212,0 c 0.40149,0 0.69333,0.08 0.8837,0.2287 0.19036,0.1454 0.2911,0.3956 0.29111,0.759 -10e-6,0.3427 -0.0938,0.5963 -0.27031,0.7589 -0.17307,0.1627 -0.47186,0.2392 -0.9045,0.2392 l -0.84212,0 0,-1.9858 z m 177.3755,0 1.10203,0 c 0.38419,0 0.68298,0.087 0.8941,0.2703 0.21459,0.1835 0.32228,0.4579 0.32231,0.811 -3e-5,0.353 -0.10772,0.624 -0.32231,0.8109 -0.21112,0.1834 -0.50991,0.2703 -0.8941,0.2703 l -1.10203,0 0,-2.1625 z m -234.79564,0.062 0.71736,0 c 0.81338,0 1.43873,0.1946 1.87138,0.5926 0.43265,0.398 0.64458,0.9921 0.64459,1.7674 -10e-6,0.7788 -0.21888,1.366 -0.65498,1.7674 -0.43266,0.4015 -1.05107,0.603 -1.86099,0.603 l -0.71736,0 0,-4.7304 z m 73.82589,0 0.71736,0 c 0.81337,0 1.43873,0.1946 1.87138,0.5926 0.43264,0.398 0.64458,0.9921 0.64458,1.7674 0,0.7788 -0.21888,1.366 -0.65498,1.7674 -0.43265,0.4015 -1.05107,0.603 -1.86098,0.603 l -0.71736,0 0,-4.7304 z m 34.59971,0 0.71736,0 c 0.81337,0 1.43873,0.1946 1.87138,0.5926 0.43264,0.398 0.64458,0.9921 0.64459,1.7674 -10e-6,0.7788 -0.21888,1.366 -0.65499,1.7674 -0.43265,0.4015 -1.05107,0.603 -1.86098,0.603 l -0.71736,0 0,-4.7304 z m -188.62457,0.3015 1.05005,3.0878 -2.12089,0 1.07084,-3.0878 z m 44.35168,0 1.06044,3.0878 -2.12089,0 1.06045,-3.0878 z m 16.03147,0 1.06045,3.0878 -2.1209,0 1.06045,-3.0878 z m 86.56166,0 1.06045,3.0878 -2.1313,0 1.07085,-3.0878 z m 25.68987,0 1.06045,3.0878 -2.1313,0 1.07085,-3.0878 z m 124.6858,0 1.06044,3.0878 -2.13129,0 1.07085,-3.0878 z m -175.24421,2.1209 0,1.5179 3.25412,0 0,-1.5179 -3.25412,0 z m 134.26101,0 0,1.5179 3.25412,0 0,-1.5179 -3.25412,0 z"
       id="path5177"
       style="font-size:medium;font-style:normal;font-variant:normal;font-weight:normal;font-stretch:normal;text-indent:0;text-align:start;text-decoration:none;line-height:normal;letter-spacing:normal;word-spacing:normal;text-transform:none;direction:ltr;block-progression:tb;writing-mode:lr-tb;text-anchor:start;baseline-shift:baseline;color:#000000;fill:#000000;fill-opacity:1;fill-rule:evenodd;stroke:none;stroke-width:5.77906704;marker:none;visibility:visible;display:inline;overflow:visible;enable-background:accumulate;font-family:Sans;-inkscape-font-specification:Sans" />
    <path
       d="m 732.34448,947.53974 -434.09091,0"
       id="path5222"
       style="fill:none;stroke:#000000;stroke-width:3.5;stroke-linecap:round;stroke-linejoin:round;stroke-miterlimit:4;stroke-opacity:1;stroke-dasharray:none" />
  </g>
</svg>
