<?xml version="1.0" encoding="UTF-8" standalone="no"?>
<!-- Created with Inkscape (http://www.inkscape.org/) -->

<svg
   xmlns:dc="http://purl.org/dc/elements/1.1/"
   xmlns:cc="http://creativecommons.org/ns#"
   xmlns:rdf="http://www.w3.org/1999/02/22-rdf-syntax-ns#"
   xmlns:svg="http://www.w3.org/2000/svg"
   xmlns="http://www.w3.org/2000/svg"
   version="1.1"
   width="210mm"
   height="297mm"
   id="svg2">
  <defs
     id="defs4" />
  <metadata
     id="metadata7">
    <rdf:RDF>
      <cc:Work
         rdf:about="">
        <dc:format>image/svg+xml</dc:format>
        <dc:type
           rdf:resource="http://purl.org/dc/dcmitype/StillImage" />
        <dc:title></dc:title>
      </cc:Work>
    </rdf:RDF>
  </metadata>
  <g
     id="layer1">
    <text
       x="464.19791"
       y="-13.877197"
       id="text2985"
       xml:space="preserve"
       style="font-size:7.89974928px;font-style:normal;font-variant:normal;font-weight:normal;font-stretch:normal;text-align:end;line-height:125%;letter-spacing:0px;word-spacing:0px;writing-mode:lr-tb;text-anchor:end;fill:#000000;fill-opacity:1;stroke:none;font-family:LMSansQuot8;-inkscape-font-specification:LMSansQuot8"><tspan
         x="464.19791"
         y="-13.877197"
         id="tspan3147"
         style="font-size:7.89974928px;font-style:normal;font-variant:normal;font-weight:normal;font-stretch:normal;text-align:end;line-height:125%;writing-mode:lr-tb;text-anchor:end;fill:#ffcc00;font-family:LMSansQuot8;-inkscape-font-specification:LMSansQuot8">UNICAMP</tspan><tspan
         x="464.19791"
         y="-4.0025105"
         id="tspan3151"
         style="font-size:7.89974928px;font-style:normal;font-variant:normal;font-weight:normal;font-stretch:normal;text-align:end;line-height:125%;writing-mode:lr-tb;text-anchor:end;fill:#ffcc00;font-family:LMSansQuot8;-inkscape-font-specification:LMSansQuot8">Modo de uso</tspan></text>
    <g
       transform="translate(744.09448,0)"
       id="g3058">
      <rect
         width="744.09448"
         height="1052.3622"
         x="-744.09448"
         y="0"
         id="rect5228"
         style="fill:#216778;fill-opacity:1;stroke:none" />
      <path
         d="M 0,86.78125 -138.875,170.75 C -309.90954,274.15643 -365.03153,497.87178 -261.625,668.90625 -202.76239,766.26502 -104.91815,826.05623 0,840.4375 L 0,634.65625 c -35.733998,-11.96398 -67.545865,-36.17596 -88.5625,-70.9375 -47.05738,-77.83304 -22.11407,-179.1302 55.71875,-226.1875 L 0,317.6875 0,86.78125 z"
         id="path2483"
         style="fill:#000000;fill-opacity:1;stroke:none" />
      <path
         d="M 0,7.4375 -77.53125,576.28125 0,520.9375 0,7.4375 z"
         id="path13"
         style="fill:#ff6600;fill-rule:evenodd;stroke:none" />
      <path
         d="M -20.875,0 -99.03125,573.34375 A 21.699595,21.699595 0 0 0 -64.9375,593.9375 L 0,547.59375 0,494.25 -49.25,529.40625 -1.25,177.21875 0,190.1875 0,0 -20.875,0 z"
         id="path3979"
         style="font-size:medium;font-style:normal;font-variant:normal;font-weight:normal;font-stretch:normal;text-indent:0;text-align:start;text-decoration:none;line-height:normal;letter-spacing:normal;word-spacing:normal;text-transform:none;direction:ltr;block-progression:tb;writing-mode:lr-tb;text-anchor:start;baseline-shift:baseline;color:#000000;fill:#ffcc00;fill-opacity:1;fill-rule:evenodd;stroke:none;stroke-width:54.93193436;marker:none;visibility:visible;display:inline;overflow:visible;enable-background:accumulate;font-family:Sans;-inkscape-font-specification:Sans" />
      <path
         d="m -429.67455,983.2188 c -68.89683,-12.3678 -83.43626,-42.15019 -29.63253,-60.69898 7.8698,-2.71312 9.89704,-4.26314 10.32139,-7.89176 2.069,-17.69142 10.72409,-26.11529 30.55025,-29.73402 11.25307,-2.05395 12.89053,-1.96522 15.70681,0.85106 4.9552,4.95519 0.84709,9.33827 -10.02296,10.69378 -12.16355,1.5168 -20.68636,6.12919 -22.15769,11.99135 -1.7156,6.83552 0.68789,7.96705 13.16882,6.19978 6.11011,-0.86517 15.07287,-1.75981 19.91724,-1.98808 5.76071,-0.27145 9.86355,-1.58149 11.8592,-3.78666 6.30313,-6.96487 17.28978,-1.80529 17.28978,8.11968 0,6.4428 -4.25022,9.50596 -11.55528,8.32802 -7.93713,-1.27985 -44.29647,2.23711 -47.11829,4.55765 -1.35687,1.11587 -2.21344,7.42888 -2.23331,16.46002 -0.0176,8.05745 -0.90126,16.27379 -1.96348,18.25856 -2.12573,3.97194 -1.40929,4.38076 11.49099,6.55711 6.94463,1.17159 6.94463,1.17159 2.31443,-5.65137 -5.29406,-7.80128 -5.66435,-11.35616 -2.0772,-19.94146 4.97183,-11.89921 23.10545,-20.21592 28.37262,-13.01263 3.81607,5.21876 2.82991,8.13942 -3.15226,9.33585 -5.62717,1.12544 -7.07715,3.19165 -3.7031,5.27693 1.01833,0.62938 1.85152,3.47921 1.85152,6.33295 0,4.45322 0.61902,5.07031 4.36719,4.35381 2.85132,-0.54508 4.75915,0.18671 5.49657,2.10831 1.22681,3.197 -0.209,8.49781 -2.3017,8.49781 -0.71479,0 -2.91695,1.2233 -4.89369,2.71844 -3.25841,2.46452 -2.21292,2.72395 11.19224,2.77733 14.78637,0.0589 14.78637,0.0589 8.89043,-4.1071 -10.49354,-7.41461 -9.43233,-26.30988 1.89446,-33.73149 7.57111,-4.96075 18.04377,-5.88075 20.99522,-1.84437 3.63189,4.9669 3.14017,6.38324 -2.95369,8.50757 -4.89316,1.70577 -5.26946,2.38473 -3.66326,6.60934 1.27783,3.36095 1.11639,5.52648 -0.56417,7.56752 -2.05887,2.50049 -1.67938,2.69107 3.02475,1.51896 9.31137,-2.32007 12.08291,7.92592 3.41586,12.62786 -4.9803,2.70186 -4.84858,2.75992 6.01759,2.6519 17.36094,-0.17256 21.91944,-1.95305 14.70999,-5.7455 -14.84347,-7.80827 -13.03503,-29.98942 2.98608,-36.62559 9.92378,-4.11056 -4.09848,-7.73347 -17.85591,-4.61341 -11.24279,2.54977 -16.92088,-12.3183 -7.14943,-18.72079 4.46599,-2.92623 5.00059,-2.89783 9.72069,0.51624 3.2639,2.36081 11.09019,4.42603 22.58454,5.95967 79.91492,10.66268 98.11795,46.79893 32.28633,64.09408 -34.49674,9.06295 -100.34913,11.27752 -137.42704,4.62163 z m -16.90744,-33.3673 c -0.49769,-18.82717 0.22658,-17.97456 -11.99603,-14.12171 -25.71182,8.10494 -25.87736,18.66307 -0.43037,27.44928 12.8695,4.44352 12.89543,4.41572 12.4264,-13.32757 z m 158.52925,14.66077 c 26.37515,-10.55583 29.02365,-17.25765 10.04629,-25.42149 -22.99237,-9.89105 -38.37428,-11.75041 -38.26839,-4.62588 0.0572,3.84768 -1.1297,5.30467 -5.48166,6.72905 -18.23365,5.96781 -12.41366,18.57166 7.05515,15.27878 16.24764,-2.74806 17.04366,-2.55338 16.74203,4.09467 -0.30051,6.62419 1.46009,7.32529 9.90658,3.94487 z"
         id="path5374"
         style="fill:#2c89a0;fill-opacity:1" />
      <path
         d="m -393.04134,982.14011 c -55.53028,-3.59093 -96.28083,-17.32116 -96.28083,-32.4403 0,-8.43113 17.29132,-21.005 35.21056,-25.60437 13.56834,-3.48261 13.14223,-3.15892 10.83206,-8.22927 -4.46698,-9.80393 4.66322,-23.35308 18.00632,-26.72115 15.61371,-3.94122 21.12253,-4.34107 21.12253,-1.53313 0,3.33178 -3.97746,4.91088 -12.36957,4.91088 -13.90854,0 -22.80994,8.07531 -22.80994,20.69304 0,5.70637 0,5.70637 16.71076,4.39911 9.19088,-0.71899 19.17805,-2.01487 22.19369,-2.87974 3.42896,-0.98342 5.91735,-0.86955 6.64263,0.30399 2.15795,3.4916 -1.98122,4.82587 -20.97168,6.76031 -23.92107,2.43667 -22.71871,1.36066 -22.75221,20.36165 -0.0266,15.16148 -1.88668,23.12599 -4.73534,20.2773 -0.69407,-0.69407 -1.36428,-8.30819 -1.48934,-16.92025 -0.27718,-19.08528 -0.4563,-19.28407 -13.67363,-15.17579 -61.9466,19.25451 -0.2097,49.68708 94.91464,46.78718 117.54799,-3.58347 136.99012,-42.10195 28.23621,-55.9412 -10.56166,-1.344 -11.71576,-4.59539 -1.63123,-4.59539 37.11125,0 79.85937,17.17377 79.85937,32.08294 0,20.31552 -71.24835,37.71702 -137.015,33.46419 z"
         id="path5397"
         style="fill:#ffffff;fill-opacity:1" />
      <path
         d="m -376.59743,966.57253 c -5.27382,-3.08145 -8.1374,-12.50362 -4.93448,-16.23593 1.50707,-1.75613 3.23859,-4.60252 3.84781,-6.3253 2.25739,-6.38331 23.42769,-15.09006 21.32051,-8.76852 -0.46712,1.40134 -3.48979,3.08793 -6.71704,3.74797 -10.98878,2.24745 -14.64229,9.07866 -4.85545,9.07866 6.31656,0 5.64156,3.50462 -1.1296,5.86506 -7.50229,2.61532 -6.64785,7.81368 1.4128,8.59542 3.25426,0.3156 7.57116,-0.31156 9.59313,-1.39368 5.30318,-2.83817 6.70894,0.86582 1.66846,4.39628 -4.57715,3.20598 -15.53402,3.76994 -20.20614,1.04004 z"
         id="path5395"
         style="fill:#ffffff;fill-opacity:1" />
      <path
         d="m -418.96312,962.88185 c -3.78337,-3.78338 -5.18828,-14.81244 -1.88683,-14.81244 0.99894,0 2.36205,-2.17445 3.02906,-4.83211 1.82292,-7.26302 21.0764,-15.53443 21.0764,-9.05455 0,1.69378 -1.72588,2.77733 -4.42375,2.77733 -5.34744,0 -13.31126,6.02684 -11.60722,8.78409 0.67223,1.08768 2.88781,1.54203 4.92352,1.00969 2.51518,-0.65774 3.70124,-0.0559 3.70124,1.87826 0,1.66845 -2.34112,3.36036 -5.65775,4.08881 -6.1925,1.36011 -6.82889,5.53635 -1.36763,8.97543 2.29814,1.4472 4.98291,1.32891 9.85923,-0.43441 7.66512,-2.77173 10.93269,-1.1992 5.60427,2.69706 -5.45252,3.98698 -18.805,3.36838 -23.25054,-1.07716 z"
         id="path5393"
         style="fill:#ffffff;fill-opacity:1" />
      <path
         d="m -329.04808,964.58954 c -18.40873,-3.12545 -18.24974,-22.12883 0.26035,-31.12175 4.50923,-2.19074 9.01789,-3.47681 10.01923,-2.85793 2.87231,1.77517 -1.45142,5.76517 -7.57441,6.98977 -7.55513,1.51103 -12.35876,9.12542 -9.59015,15.20178 4.10444,9.00836 13.03801,9.96718 33.18253,3.56142 3.31764,-1.05499 3.96446,-0.73672 3.09702,1.52382 -1.95896,5.10504 -17.68472,8.69101 -29.39457,6.70289 z"
         id="path5391"
         style="fill:#ffffff;fill-opacity:1" />
      <path
         d="m -355.54739,921.96402 c -2.58773,-0.96192 -4.16596,-3.09102 -4.16596,-5.61996 0,-2.23926 0.55724,-3.51409 1.23836,-2.83296 0.68113,0.68112 2.8394,-0.21045 4.79611,-1.98127 3.38161,-3.06029 3.67728,-3.05623 5.972,0.082 4.88623,6.68231 -0.0785,13.23748 -7.84051,10.35218 z"
         id="path5389"
         style="fill:#ff0000;fill-opacity:1" />
      <path
         d="m -387.0238,920.95565 c -3.66065,-1.53128 -2.59252,-6.85371 2.05195,-10.22479 5.46174,-3.96424 9.0637,-1.72938 8.27988,5.13725 -0.60863,5.33151 -4.80676,7.39873 -10.33183,5.08754 z"
         id="path5372"
         style="fill:#ff0000;fill-opacity:1" />
      <path
         d="m -376.88153,980.06105 c 3.28691,-0.40901 9.1193,-0.41572 12.96084,-0.0149 3.84158,0.40091 1.15223,0.73556 -5.97626,0.74376 -7.12844,0.008 -10.27154,-0.31974 -6.98458,-0.72874 z m -32.36094,-1.8414 c 2.80051,-0.42424 7.38309,-0.42424 10.18354,0 2.80051,0.42423 0.5092,0.77135 -5.09177,0.77135 -5.60091,0 -7.89223,-0.34712 -5.09177,-0.77135 z m 65.73021,0.0197 c 2.29126,-0.44133 6.0407,-0.44133 8.33197,0 2.29131,0.44134 0.41662,0.80241 -4.16596,0.80241 -4.58264,0 -6.45733,-0.36107 -4.16601,-0.80241 z m -83.31997,-1.77109 c 1.27293,-0.51365 3.35594,-0.51365 4.62887,0 1.27298,0.51366 0.23148,0.93391 -2.31444,0.93391 -2.54586,0 -3.58736,-0.42025 -2.31443,-0.93391 z m 100.94498,-0.0569 c 1.80146,-0.46945 4.30109,-0.43858 5.55463,0.0686 1.2536,0.50719 -0.2204,0.89127 -3.27546,0.85356 -3.05505,-0.0378 -4.08068,-0.45273 -2.27917,-0.92216 z m 13.96713,-1.83327 c 1.33658,-0.53486 2.93356,-0.46908 3.5488,0.14618 0.61524,0.61526 -0.4783,1.05287 -2.43017,0.97248 -2.15693,-0.0888 -2.59566,-0.52759 -1.11863,-1.11865 z m 29.97205,-7.99295 c 1.52753,-0.98717 3.61054,-1.79485 4.62887,-1.79485 1.01833,0 0.60176,0.80768 -0.92576,1.79485 -1.52753,0.98717 -3.61054,1.79485 -4.62892,1.79485 -1.01834,0 -0.60171,-0.80768 0.92581,-1.79485 z m -95.28755,-3.6285 c -5.66217,-6.25662 -2.48312,-13.07871 5.98531,-12.84413 l 6.90804,0.19137 -6.9433,1.84412 c -11.5728,3.07369 -9.30748,10.1014 4.10311,12.72915 l 6.54329,1.28214 -6.65637,0.21292 c -4.45954,0.14267 -7.74006,-0.98459 -9.94008,-3.41557 z m -98.1868,-0.0534 c -0.64868,-1.04957 0.0945,-1.35997 1.74229,-0.72768 3.20765,1.2309 3.79455,2.55803 1.1312,2.55803 -0.95826,0 -2.25132,-0.82366 -2.87349,-1.83035 z m 58.07466,-1.40987 c -2.35054,-2.99722 -2.26341,-3.03651 1.16199,-0.52393 2.03672,1.49396 4.05027,2.95206 4.47456,3.24022 0.42435,0.28816 -0.0985,0.52393 -1.16193,0.52393 -1.06339,0 -3.07695,-1.4581 -4.47462,-3.24022 z m 13.19706,2.53039 c 0,-0.3904 1.66755,-1.1459 3.70566,-1.67888 2.03816,-0.53298 3.23876,-0.21355 2.6681,0.70983 -0.9966,1.61253 -6.37376,2.43006 -6.37376,0.96905 z m 44.43735,-0.0178 c 0,-0.40022 1.29306,-1.22388 2.87348,-1.83034 1.64774,-0.6323 2.39092,-0.32189 1.74228,0.72768 -1.08736,1.75928 -4.61576,2.60218 -4.61576,1.10259 z m 34.83234,-0.53714 c 1.33658,-0.53486 2.93357,-0.46908 3.54881,0.14618 0.61529,0.61526 -0.47831,1.05287 -2.43018,0.97248 -2.15693,-0.0888 -2.59566,-0.52759 -1.11863,-1.11865 z m -118.02218,-3.82703 c 0.50876,-5.42886 3.32142,-8.45414 3.44286,-3.70311 0.0715,2.80048 -0.70307,5.09178 -1.72146,5.09178 -1.01833,0 -1.79299,-0.62491 -1.7214,-1.38867 z m 105.17229,-1.85156 c -2.30308,-2.93667 -2.23762,-3.00215 0.69908,-0.69906 3.08419,2.41881 4.06503,3.93929 2.54112,3.93929 -0.38445,0 -1.84258,-1.45811 -3.2402,-3.24023 z m 74.88973,-1.64591 c 0.83442,-1.25583 2.2209,-4.6279 3.08105,-7.49348 1.26829,-4.22524 1.59405,-4.4614 1.7231,-1.24928 0.0876,2.17848 -1.29897,5.55055 -3.08109,7.49348 -1.78213,1.94294 -2.55748,2.50511 -1.72306,1.24928 z m -155.35049,-5.7603 c 0.76379,-0.76377 3.73927,-1.38867 6.61222,-1.38867 2.873,0 4.83739,0.6249 4.36532,1.38867 -0.47201,0.76376 -3.44749,1.38866 -6.61221,1.38866 -3.16467,0 -5.12906,-0.6249 -4.36533,-1.38866 z m 46.8752,-11.80198 c 1.25599,-1.26538 2.75002,-1.83428 3.32009,-1.26421 0.57007,0.57007 -0.45753,1.60539 -2.2836,2.3007 -2.6388,1.00482 -2.85148,0.79214 -1.03649,-1.03649 z m 9.40436,-2.88662 c 1.33658,-0.53486 2.93357,-0.46908 3.54881,0.14618 0.61523,0.61526 -0.47831,1.05287 -2.43018,0.97248 -2.15693,-0.0888 -2.59566,-0.52759 -1.11863,-1.11865 z m 35.52668,-1.29656 c 0,-0.3904 1.66756,-1.1459 3.70566,-1.67888 2.03816,-0.53298 3.23876,-0.21355 2.6681,0.70983 -0.9966,1.61253 -6.37376,2.43007 -6.37376,0.96905 z m -116.12997,-5.37325 c -2.73252,-5.99733 0.98222,-8.88066 10.93253,-8.48562 6.1393,0.24375 6.1393,0.24375 -0.32714,1.38867 -5.35217,0.94764 -6.62851,2.08471 -7.40695,6.59877 -0.94046,5.45383 -0.94046,5.45383 -3.19844,0.49818 z m 134.18264,-6.25249 c 1.27298,-0.51365 3.35593,-0.51365 4.62892,0 1.27293,0.51364 0.23142,0.93389 -2.31449,0.93389 -2.54586,0 -3.58736,-0.42025 -2.31443,-0.93389 z m -9.14205,-1.89013 c 1.33658,-0.53487 2.93356,-0.46909 3.5488,0.14618 0.6153,0.61525 -0.4783,1.05286 -2.43012,0.97247 -2.15699,-0.0888 -2.59571,-0.52759 -1.11868,-1.11865 z m -101.83548,-1.85156 c 1.33658,-0.53486 2.93356,-0.46908 3.5488,0.14618 0.61524,0.61526 -0.4783,1.05287 -2.43018,0.97248 -2.15693,-0.0888 -2.59566,-0.52759 -1.11862,-1.11865 z m 88.87459,0 c 1.33663,-0.53486 2.93356,-0.46908 3.54886,0.14618 0.61524,0.61526 -0.47836,1.05287 -2.43018,0.97248 -2.15699,-0.0888 -2.59571,-0.52759 -1.11868,-1.11865 z m -108.89452,-19.80134 c 0,-0.38448 1.45807,-1.84258 3.24019,-3.24022 2.93671,-2.3031 3.00217,-2.2376 0.69908,0.69906 -2.41883,3.08423 -3.93927,4.06505 -3.93927,2.54116 z"
         id="path5370"
         style="fill:#e6e6e6;fill-opacity:1" />
      <text
         x="-300.47641"
         y="871.18036"
         id="text5409"
         xml:space="preserve"
         style="font-size:28px;font-style:normal;font-variant:normal;font-weight:bold;font-stretch:normal;text-align:end;line-height:125%;letter-spacing:0px;word-spacing:0px;writing-mode:lr-tb;text-anchor:end;fill:#ffffff;fill-opacity:1;stroke:none;font-family:Ubuntu;-inkscape-font-specification:Ubuntu Bold"><tspan
           x="-300.47641"
           y="871.18036"
           id="tspan5411">Patrocínio:</tspan></text>
      <text
         x="-372.27057"
         y="1009.9972"
         id="text5413"
         xml:space="preserve"
         style="font-size:15.53546619px;font-style:normal;font-variant:normal;font-weight:normal;font-stretch:normal;text-align:center;line-height:125%;letter-spacing:0px;word-spacing:0px;writing-mode:lr-tb;text-anchor:middle;fill:#ffffff;fill-opacity:1;stroke:none;font-family:Ubuntu;-inkscape-font-specification:Ubuntu"><tspan
           x="-372.27057"
           y="1009.9972"
           id="tspan5415">FACULDADE DE ENGENHARIA</tspan><tspan
           x="-372.27057"
           y="1029.4165"
           id="tspan5417">ELÉTRICA E DE COMPUTAÇÃO</tspan></text>
    </g>
  </g>
</svg>
